<svg width="756.5" height="69.851" viewBox="0 0 756.5 69.851" xmlns="http://www.w3.org/2000/svg"><g id="svgGroup" stroke-linecap="round" fill-rule="evenodd" font-size="9pt" stroke="#ffffff" stroke-width="0.25mm" fill="#0d0c0c" style="stroke:#ffffff;stroke-width:0.25mm;fill:#0d0c0c"><path d="M 465.75 40.601 L 465.5 36.951 A 87.086 87.086 0 0 1 464.746 38.926 Q 463.644 41.701 462.725 43.351 A 15.582 15.582 0 0 1 461.998 44.538 Q 461.212 45.692 460.427 46.291 A 4.207 4.207 0 0 1 460.275 46.401 A 4.767 4.767 0 0 1 457.955 47.226 A 6.011 6.011 0 0 1 457.4 47.251 A 4.202 4.202 0 0 1 455.853 46.977 Q 454.879 46.594 454.197 45.68 A 4.743 4.743 0 0 1 454.175 45.651 Q 453.079 44.158 452.744 41.053 A 22.077 22.077 0 0 1 452.7 40.601 Q 452.1 33.601 452.1 28.351 L 452.1 26.601 Q 452.15 24.951 453 24.301 Q 453.605 23.838 454.641 23.705 A 7.142 7.142 0 0 1 455.55 23.651 A 4.67 4.67 0 0 1 456.254 23.7 Q 456.616 23.756 456.906 23.873 A 1.871 1.871 0 0 1 457.475 24.226 A 1.679 1.679 0 0 1 457.891 24.849 Q 458.1 25.37 458.1 26.151 Q 458.1 31.838 458.785 40.901 A 388.632 388.632 0 0 0 458.8 41.101 Q 462.2 33.951 465.05 26.201 Q 465.553 24.831 466.243 24.274 A 1.979 1.979 0 0 1 466.375 24.176 A 3.014 3.014 0 0 1 467.587 23.703 A 4.036 4.036 0 0 1 468.25 23.651 Q 469.414 23.651 469.965 24.06 A 1.256 1.256 0 0 1 470.125 24.201 Q 470.589 24.687 470.643 25.837 A 6.708 6.708 0 0 1 470.65 26.151 Q 470.65 31.838 471.335 40.901 A 388.632 388.632 0 0 0 471.35 41.101 A 204.928 204.928 0 0 0 472.756 38.988 Q 474.264 36.692 475.277 34.988 A 53.692 53.692 0 0 0 475.85 34.001 A 6.499 6.499 0 0 1 475.244 32.196 A 8.969 8.969 0 0 1 475.1 30.551 Q 475.1 28.851 475.85 27.251 Q 476.6 25.651 477.9 24.651 Q 479.2 23.651 480.85 23.651 A 3.328 3.328 0 0 1 482.004 23.844 A 2.909 2.909 0 0 1 483.2 24.676 Q 483.928 25.505 484.067 26.94 A 7.377 7.377 0 0 1 484.1 27.651 Q 484.1 29.901 482.9 32.801 Q 484.065 32.74 485.701 32.471 A 52.66 52.66 0 0 0 486.83 32.272 A 13.786 13.786 0 0 1 487.7 29.976 Q 489.15 27.001 491.7 25.326 Q 494.25 23.651 497.35 23.651 A 8.907 8.907 0 0 1 500.269 24.11 A 7.491 7.491 0 0 1 503.475 26.276 A 10.93 10.93 0 0 1 506.027 31.571 A 13.829 13.829 0 0 1 506.2 32.751 A 21.544 21.544 0 0 0 508.089 32.54 A 32.712 32.712 0 0 0 510.171 32.146 A 40.972 40.972 0 0 1 511.222 27.419 A 38.471 38.471 0 0 1 511.5 26.501 A 4.842 4.842 0 0 1 511.919 25.522 A 3.327 3.327 0 0 1 512.975 24.376 A 3.601 3.601 0 0 1 513.944 23.939 Q 514.752 23.701 515.85 23.701 A 8.007 8.007 0 0 1 515.864 23.701 Q 516.636 23.702 517.048 23.854 A 1.099 1.099 0 0 1 517.25 23.951 Q 517.576 24.155 517.637 24.658 A 2.049 2.049 0 0 1 517.65 24.901 Q 517.65 25.701 516.9 28.501 Q 516.4 30.501 516.1 32.001 A 25.166 25.166 0 0 0 515.889 33.224 Q 515.725 34.326 515.6 35.701 Q 516.912 32.283 518.476 29.876 A 19.642 19.642 0 0 1 519.3 28.701 A 21.479 21.479 0 0 1 520.701 27.028 Q 521.438 26.239 522.164 25.655 A 9.49 9.49 0 0 1 523.325 24.851 A 10.368 10.368 0 0 1 524.645 24.196 Q 525.39 23.894 526.083 23.776 A 5.169 5.169 0 0 1 526.95 23.701 Q 529.529 23.701 530.062 25.747 A 4.788 4.788 0 0 1 530.2 26.951 A 11.799 11.799 0 0 1 530.136 28.08 Q 529.934 30.136 529.1 34.001 Q 528.15 38.351 528.15 39.751 Q 528.15 41.706 529.536 41.75 A 2.034 2.034 0 0 0 529.6 41.751 A 2.098 2.098 0 0 0 530.332 41.606 Q 530.955 41.374 531.693 40.768 A 9.282 9.282 0 0 0 531.975 40.526 A 18.687 18.687 0 0 0 532.822 39.716 A 34.753 34.753 0 0 0 533.7 38.791 A 16.469 16.469 0 0 1 535.4 31.626 Q 537.1 28.201 540.075 26.026 Q 543.05 23.851 546.75 23.451 A 80.147 80.147 0 0 1 547.859 15.769 Q 548.829 10.851 550.375 6.876 A 20.62 20.62 0 0 1 551.626 4.197 Q 553.386 1.088 555.707 0.283 A 5.126 5.126 0 0 1 557.4 0.001 A 4.123 4.123 0 0 1 560.554 1.435 A 6.09 6.09 0 0 1 560.975 1.951 A 6.253 6.253 0 0 1 561.844 3.695 Q 562.383 5.329 562.4 7.697 A 21.575 21.575 0 0 1 562.4 7.851 Q 562.4 12.204 560.738 17.705 A 58.987 58.987 0 0 1 559.65 20.951 A 90.191 90.191 0 0 1 555.49 30.482 A 110.603 110.603 0 0 1 552.3 36.351 A 23.187 23.187 0 0 0 552.43 37.698 Q 552.604 39.059 552.921 39.926 A 4.357 4.357 0 0 0 553.175 40.501 A 3.382 3.382 0 0 0 553.56 41.077 Q 553.822 41.388 554.128 41.555 A 1.58 1.58 0 0 0 554.9 41.751 Q 556.043 41.751 557.221 40.892 A 6.989 6.989 0 0 0 557.65 40.551 Q 558.421 39.89 559.481 38.744 A 53.542 53.542 0 0 0 559.499 38.724 A 13.948 13.948 0 0 1 559.35 36.601 Q 559.35 33.151 560.8 30.176 A 12.196 12.196 0 0 1 563.461 26.536 A 11.512 11.512 0 0 1 564.825 25.451 Q 567.4 23.701 570.65 23.701 A 7.927 7.927 0 0 1 572.664 23.944 A 5.766 5.766 0 0 1 575.3 25.426 A 5.73 5.73 0 0 1 576.896 28.457 A 8.34 8.34 0 0 1 577.05 30.101 A 8.071 8.071 0 0 1 574.652 35.948 A 9.972 9.972 0 0 1 574.575 36.026 Q 572.263 38.338 566.964 39.755 A 38.718 38.718 0 0 1 566.2 39.951 Q 567.361 42.087 570.462 42.239 A 9.944 9.944 0 0 0 570.95 42.251 A 7.807 7.807 0 0 0 572.881 41.991 Q 573.764 41.765 574.725 41.344 A 17.197 17.197 0 0 0 576.075 40.676 A 16.926 16.926 0 0 0 579.858 37.86 A 40.972 40.972 0 0 1 581.422 27.419 A 38.471 38.471 0 0 1 581.7 26.501 A 4.842 4.842 0 0 1 582.119 25.522 A 3.327 3.327 0 0 1 583.175 24.376 A 3.601 3.601 0 0 1 584.144 23.939 Q 584.952 23.701 586.05 23.701 A 8.007 8.007 0 0 1 586.064 23.701 Q 586.836 23.702 587.248 23.854 A 1.099 1.099 0 0 1 587.45 23.951 Q 587.776 24.155 587.837 24.658 A 2.049 2.049 0 0 1 587.85 24.901 Q 587.85 25.701 587.1 28.501 Q 586.6 30.501 586.3 32.001 A 25.166 25.166 0 0 0 586.089 33.224 Q 585.925 34.326 585.8 35.701 Q 587.112 32.283 588.676 29.876 A 19.642 19.642 0 0 1 589.5 28.701 A 21.479 21.479 0 0 1 590.901 27.028 Q 591.638 26.239 592.364 25.655 A 9.49 9.49 0 0 1 593.525 24.851 A 10.368 10.368 0 0 1 594.845 24.196 Q 595.59 23.894 596.283 23.776 A 5.169 5.169 0 0 1 597.15 23.701 Q 599.729 23.701 600.262 25.747 A 4.788 4.788 0 0 1 600.4 26.951 A 3.791 3.791 0 0 1 600.384 27.26 Q 600.316 28.07 599.95 30.101 A 67.886 67.886 0 0 0 599.814 30.798 Q 599.618 31.835 599.568 32.326 A 2.814 2.814 0 0 0 599.55 32.601 A 3.63 3.63 0 0 0 599.598 33.218 Q 599.789 34.322 600.75 34.35 A 1.732 1.732 0 0 0 600.8 34.351 A 2.448 2.448 0 0 0 601.702 34.157 Q 602.116 33.992 602.581 33.686 A 9.324 9.324 0 0 0 603.154 33.272 A 94.523 94.523 0 0 1 604.775 22.826 Q 606.404 15.073 608.989 9.415 A 40.282 40.282 0 0 1 610.475 6.476 Q 613.528 1.024 617.094 0.162 A 5.757 5.757 0 0 1 618.45 0.001 Q 620.592 0.001 621.882 1.745 A 5.818 5.818 0 0 1 622.125 2.101 A 7.765 7.765 0 0 1 623.031 4.216 Q 623.45 5.754 623.45 7.751 Q 623.45 19.011 610.548 32.199 A 89.691 89.691 0 0 1 609.4 33.351 A 111.652 111.652 0 0 0 609.096 36.857 Q 608.961 38.769 608.919 40.46 A 60.132 60.132 0 0 0 608.9 41.951 Q 608.9 47.101 609.25 52.526 A 58.058 58.058 0 0 0 609.371 54.089 Q 609.725 57.951 610.4 57.951 Q 611.662 57.951 611.862 54.274 A 28.093 28.093 0 0 0 611.9 52.751 Q 611.9 48.851 611.375 45.201 A 96.893 96.893 0 0 0 610.572 40.482 A 115.558 115.558 0 0 0 609.95 37.501 A 1.656 1.656 0 0 1 609.945 37.374 Q 609.945 36.756 610.375 35.851 A 7.025 7.025 0 0 1 611.25 34.447 A 6.357 6.357 0 0 1 611.55 34.101 Q 612.126 33.484 612.6 33.375 A 0.887 0.887 0 0 1 612.8 33.351 A 24.829 24.829 0 0 1 613.606 33.365 Q 614.056 33.38 614.566 33.41 A 49.851 49.851 0 0 1 615.2 33.451 A 7.57 7.57 0 0 0 615.623 33.485 Q 615.913 33.501 616.25 33.501 Q 618.25 33.501 620.7 33.151 Q 621.1 33.101 621.55 33.051 A 8.144 8.144 0 0 1 621.563 33.05 A 39.331 39.331 0 0 1 622.373 29.283 A 49.435 49.435 0 0 1 623.2 26.501 A 6.243 6.243 0 0 1 623.571 25.608 Q 623.996 24.788 624.6 24.351 A 2.785 2.785 0 0 1 625.343 23.981 Q 626.057 23.739 627.109 23.706 A 10.875 10.875 0 0 1 627.45 23.701 Q 628.55 23.701 628.975 24.051 A 1.118 1.118 0 0 1 629.348 24.652 Q 629.396 24.839 629.4 25.063 A 2.26 2.26 0 0 1 629.4 25.101 A 1.736 1.736 0 0 1 629.381 25.318 Q 629.297 25.932 628.85 27.801 A 62.005 62.005 0 0 0 628.413 29.511 Q 628.218 30.323 628.07 31.054 A 37.062 37.062 0 0 0 628.05 31.151 A 138.226 138.226 0 0 0 627.661 33.28 Q 627.158 36.168 627.069 37.604 A 8.996 8.996 0 0 0 627.05 38.151 Q 627.05 38.967 627.201 39.405 A 1.215 1.215 0 0 0 627.3 39.626 Q 627.55 40.051 628.1 40.051 A 1.043 1.043 0 0 0 628.572 39.922 Q 629.152 39.626 629.903 38.646 A 11.298 11.298 0 0 0 629.975 38.551 Q 630.991 37.196 632.13 34.576 A 44.534 44.534 0 0 0 632.375 34.001 A 44.182 44.182 0 0 0 633.321 31.517 Q 633.808 30.12 634.284 28.51 A 87.681 87.681 0 0 0 634.85 26.501 A 6.168 6.168 0 0 1 635.142 25.646 Q 635.331 25.209 635.573 24.878 A 2.685 2.685 0 0 1 636.075 24.351 A 2.627 2.627 0 0 1 636.873 23.933 Q 637.24 23.81 637.69 23.752 A 6.771 6.771 0 0 1 638.55 23.701 A 7.587 7.587 0 0 1 639.081 23.718 Q 639.813 23.77 640.15 23.976 A 0.864 0.864 0 0 1 640.514 24.436 Q 640.6 24.673 640.6 25.001 A 5.788 5.788 0 0 1 640.556 25.623 Q 640.381 27.168 639.506 31.149 A 223.797 223.797 0 0 1 639.35 31.851 A 213.155 213.155 0 0 0 638.874 34.079 Q 637.95 38.532 637.95 39.751 A 3.659 3.659 0 0 0 637.989 40.303 Q 638.035 40.602 638.134 40.843 A 1.674 1.674 0 0 0 638.35 41.226 A 1.354 1.354 0 0 0 638.756 41.589 Q 639.031 41.746 639.378 41.751 A 1.591 1.591 0 0 0 639.4 41.751 A 2.098 2.098 0 0 0 640.132 41.606 Q 640.755 41.374 641.493 40.768 A 9.282 9.282 0 0 0 641.775 40.526 Q 642.919 39.507 644.702 37.434 A 84.191 84.191 0 0 0 644.797 37.322 A 24.951 24.951 0 0 1 644.58 35.269 A 34.078 34.078 0 0 1 644.5 32.901 Q 644.5 27.659 645.663 21.161 A 99.498 99.498 0 0 1 646.075 19.001 Q 647.65 11.201 650.725 5.601 Q 652.394 2.562 654.408 1.173 A 6.294 6.294 0 0 1 658.05 0.001 A 4.082 4.082 0 0 1 661.274 1.47 A 5.831 5.831 0 0 1 661.825 2.226 A 7.857 7.857 0 0 1 662.663 4.165 Q 663.2 6.007 663.2 8.601 A 26.374 26.374 0 0 1 662.656 13.749 Q 662.158 16.243 661.206 18.999 A 55.787 55.787 0 0 1 659.9 22.401 A 72.402 72.402 0 0 1 654.252 33.124 A 86.522 86.522 0 0 1 650.95 37.951 Q 651.3 40.001 652.1 40.876 A 2.649 2.649 0 0 0 653.922 41.74 A 3.633 3.633 0 0 0 654.2 41.751 A 6.035 6.035 0 0 0 656.513 41.315 A 5.716 5.716 0 0 0 657.8 40.576 Q 659.089 39.599 660.966 37.464 A 57.038 57.038 0 0 0 661.75 36.551 A 2.382 2.382 0 0 1 662.17 36.16 A 1.569 1.569 0 0 1 663.1 35.851 A 1.113 1.113 0 0 1 663.975 36.247 A 1.582 1.582 0 0 1 664.125 36.451 Q 664.411 36.908 664.479 37.627 A 5.04 5.04 0 0 1 664.5 38.101 A 6.766 6.766 0 0 1 664.398 39.317 Q 664.189 40.462 663.55 41.201 A 23.018 23.018 0 0 1 660.716 44.142 A 19.465 19.465 0 0 1 658.875 45.551 A 10.012 10.012 0 0 1 653.163 47.251 A 12.199 12.199 0 0 1 653.15 47.251 A 7.555 7.555 0 0 1 650.122 46.668 Q 648.365 45.908 647.172 44.158 A 9.599 9.599 0 0 1 646.625 43.251 A 16.54 16.54 0 0 1 646.214 42.403 A 23.98 23.98 0 0 1 644.583 44.013 A 19.825 19.825 0 0 1 642.625 45.551 Q 640.15 47.251 637 47.251 A 4.894 4.894 0 0 1 635.562 47.052 A 3.625 3.625 0 0 1 633.475 45.401 A 6.698 6.698 0 0 1 632.769 43.731 Q 632.35 42.246 632.35 40.201 A 16.752 16.752 0 0 1 631.665 42.352 Q 631.22 43.466 630.646 44.341 A 8.138 8.138 0 0 1 629.8 45.426 A 6.983 6.983 0 0 1 628.658 46.427 Q 627.806 47.013 626.898 47.182 A 4.073 4.073 0 0 1 626.15 47.251 A 4.129 4.129 0 0 1 622.944 45.777 A 6.104 6.104 0 0 1 622.475 45.176 A 7.877 7.877 0 0 1 621.276 42.309 A 11.173 11.173 0 0 1 621.05 40.001 A 49.005 49.005 0 0 1 621.067 38.622 A 6.526 6.526 0 0 1 620.19 38.839 Q 619.259 39.018 618.091 39.046 A 18.428 18.428 0 0 1 617.65 39.051 A 9.071 9.071 0 0 1 616.892 39.015 Q 616.069 38.946 614.928 38.74 A 39.447 39.447 0 0 1 614.2 38.601 A 64.518 64.518 0 0 1 614.794 41.87 A 84.735 84.735 0 0 1 615.275 45.476 Q 615.561 48.012 615.654 49.95 A 36.434 36.434 0 0 1 615.7 51.701 Q 615.7 57.004 614.013 59.847 A 8 8 0 0 1 613.95 59.951 A 7.204 7.204 0 0 1 612.749 61.454 A 4.809 4.809 0 0 1 609.35 62.801 Q 606.272 62.801 604.711 59.073 A 13.763 13.763 0 0 1 604.225 57.701 Q 602.957 53.46 602.743 45.624 A 122.106 122.106 0 0 1 602.7 42.301 A 94.523 94.523 0 0 1 602.764 39.036 A 8.165 8.165 0 0 1 598.9 40.001 Q 597.047 40.001 595.818 39.341 A 4.113 4.113 0 0 1 594.875 38.651 A 4.491 4.491 0 0 1 593.609 36.222 A 6.515 6.515 0 0 1 593.5 35.001 Q 593.5 34.251 593.65 33.501 Q 593.75 32.501 593.75 32.151 A 1.723 1.723 0 0 0 593.729 31.869 Q 593.643 31.351 593.2 31.351 Q 592.45 31.351 591.225 33.026 A 16.497 16.497 0 0 0 590.31 34.433 Q 589.859 35.205 589.411 36.124 A 35.046 35.046 0 0 0 588.8 37.451 Q 587.6 40.201 586.85 43.251 A 17.81 17.81 0 0 1 586.564 44.331 Q 586.256 45.353 585.9 45.964 A 2.934 2.934 0 0 1 585.575 46.426 Q 584.971 47.114 583.794 47.228 A 5.101 5.101 0 0 1 583.3 47.251 A 2.752 2.752 0 0 1 582.013 46.959 Q 581.41 46.646 580.996 45.995 A 4.228 4.228 0 0 1 580.625 45.251 A 8.404 8.404 0 0 1 580.251 43.936 A 16.324 16.324 0 0 1 580.202 43.684 A 21.05 21.05 0 0 1 578.507 44.832 A 26.816 26.816 0 0 1 577.625 45.351 Q 574.25 47.251 570.4 47.251 A 15.547 15.547 0 0 1 567.138 46.929 Q 565.055 46.482 563.485 45.414 A 8.901 8.901 0 0 1 562.25 44.401 A 9.433 9.433 0 0 1 561.291 43.287 A 24.468 24.468 0 0 1 559.381 44.962 A 22.448 22.448 0 0 1 558.7 45.476 Q 556.463 47.097 554.267 47.238 A 6.519 6.519 0 0 1 553.85 47.251 A 5.527 5.527 0 0 1 549.337 44.977 Q 548.665 44.127 548.122 42.958 A 13.484 13.484 0 0 1 548.05 42.801 A 27.183 27.183 0 0 1 546.91 44.153 Q 545.507 45.704 544.375 46.351 A 6.781 6.781 0 0 1 541.961 47.163 A 8.768 8.768 0 0 1 540.7 47.251 A 6.652 6.652 0 0 1 537.88 46.664 A 6.541 6.541 0 0 1 535.675 44.976 A 7.872 7.872 0 0 1 534.903 43.904 A 23.98 23.98 0 0 1 534.783 44.013 A 19.825 19.825 0 0 1 532.825 45.551 Q 530.35 47.251 527.2 47.251 Q 525.246 47.251 524.026 46.385 A 3.933 3.933 0 0 1 523.35 45.776 A 4.754 4.754 0 0 1 522.406 44.069 Q 522.175 43.354 522.094 42.487 A 10.586 10.586 0 0 1 522.05 41.501 Q 522.05 40.203 522.651 37.017 A 93.886 93.886 0 0 1 522.75 36.501 Q 523.364 33.526 523.398 32.29 A 5.057 5.057 0 0 0 523.4 32.151 A 1.723 1.723 0 0 0 523.379 31.869 Q 523.293 31.351 522.85 31.351 A 0.78 0.78 0 0 0 522.48 31.462 Q 522 31.727 521.322 32.618 A 13.349 13.349 0 0 0 521.025 33.026 A 18.511 18.511 0 0 0 520.137 34.433 Q 519.694 35.205 519.244 36.124 A 40.649 40.649 0 0 0 518.625 37.451 Q 517.4 40.201 516.65 43.251 A 17.81 17.81 0 0 1 516.364 44.331 Q 516.056 45.353 515.7 45.964 A 2.934 2.934 0 0 1 515.375 46.426 Q 514.771 47.114 513.594 47.228 A 5.101 5.101 0 0 1 513.1 47.251 A 2.752 2.752 0 0 1 511.813 46.959 Q 511.21 46.646 510.796 45.995 A 4.228 4.228 0 0 1 510.425 45.251 Q 509.65 43.251 509.65 38.851 A 40.972 40.972 0 0 1 509.665 37.548 A 21.445 21.445 0 0 1 508.005 37.818 A 26.153 26.153 0 0 1 505.8 38.001 A 14.256 14.256 0 0 1 504.503 41.57 A 11.459 11.459 0 0 1 502.05 44.726 A 9.911 9.911 0 0 1 498.976 46.654 A 9.026 9.026 0 0 1 495.7 47.251 A 10.353 10.353 0 0 1 493.161 46.953 A 8.035 8.035 0 0 1 490.575 45.801 Q 488.45 44.351 487.35 41.951 A 12.277 12.277 0 0 1 486.295 37.905 A 15.483 15.483 0 0 1 484.696 38.039 A 17.649 17.649 0 0 1 484.05 38.051 A 14.386 14.386 0 0 1 480.765 37.685 A 13.024 13.024 0 0 1 479.9 37.451 A 96.41 96.41 0 0 1 477.661 40.907 A 111.905 111.905 0 0 1 476.7 42.301 A 35.197 35.197 0 0 1 475.736 43.613 Q 474.684 44.974 473.816 45.756 A 7.132 7.132 0 0 1 473.275 46.201 Q 471.85 47.251 470.05 47.251 A 4.08 4.08 0 0 1 468.739 47.051 A 3.276 3.276 0 0 1 467.025 45.701 Q 466.158 44.389 465.845 41.644 A 24.395 24.395 0 0 1 465.75 40.601 Z M 175.688 46.923 A 13.893 13.893 0 0 0 178.8 47.251 A 12.912 12.912 0 0 0 182.104 46.806 A 16.983 16.983 0 0 0 185.125 45.676 A 16.219 16.219 0 0 0 188.125 43.805 A 16.324 16.324 0 0 0 188.151 43.936 A 8.404 8.404 0 0 0 188.525 45.251 A 4.228 4.228 0 0 0 188.896 45.995 Q 189.31 46.646 189.913 46.959 A 2.752 2.752 0 0 0 191.2 47.251 A 5.101 5.101 0 0 0 191.694 47.228 Q 192.871 47.114 193.475 46.426 A 2.934 2.934 0 0 0 193.8 45.964 Q 194.156 45.353 194.464 44.331 A 17.81 17.81 0 0 0 194.75 43.251 Q 195.5 40.201 196.7 37.451 A 35.046 35.046 0 0 1 197.311 36.124 Q 197.759 35.205 198.21 34.433 A 16.497 16.497 0 0 1 199.125 33.026 Q 200.35 31.351 201.1 31.351 Q 201.543 31.351 201.629 31.869 A 1.723 1.723 0 0 1 201.65 32.151 Q 201.65 32.501 201.55 33.501 Q 201.4 34.251 201.4 35.001 A 6.515 6.515 0 0 0 201.509 36.222 A 4.491 4.491 0 0 0 202.775 38.651 A 4.113 4.113 0 0 0 203.718 39.341 Q 204.947 40.001 206.8 40.001 A 8.165 8.165 0 0 0 209.754 39.454 A 11.448 11.448 0 0 0 210.038 41.763 A 7.85 7.85 0 0 0 211.6 45.001 A 5.93 5.93 0 0 0 214.197 46.865 A 6.889 6.889 0 0 0 216.55 47.251 A 6.761 6.761 0 0 0 221.44 45.172 A 11.326 11.326 0 0 0 223.1 43.051 A 8.336 8.336 0 0 0 223.611 44.202 A 6.358 6.358 0 0 0 225.175 46.126 A 5.85 5.85 0 0 0 225.392 46.295 A 4.61 4.61 0 0 0 228.2 47.251 Q 230.35 47.251 232.65 45.501 A 22.494 22.494 0 0 0 234.115 44.283 A 122.106 122.106 0 0 0 234.143 45.624 Q 234.357 53.46 235.625 57.701 A 13.763 13.763 0 0 0 236.111 59.073 Q 237.672 62.801 240.75 62.801 A 4.809 4.809 0 0 0 244.149 61.454 A 7.204 7.204 0 0 0 245.35 59.951 A 8 8 0 0 0 245.413 59.847 Q 247.1 57.004 247.1 51.701 A 36.434 36.434 0 0 0 247.054 49.95 Q 246.961 48.012 246.675 45.476 A 84.735 84.735 0 0 0 246.194 41.87 A 64.518 64.518 0 0 0 245.6 38.601 A 39.447 39.447 0 0 0 246.328 38.74 Q 247.469 38.946 248.292 39.015 A 9.071 9.071 0 0 0 249.05 39.051 A 18.428 18.428 0 0 0 249.491 39.046 Q 251.959 38.987 253.369 38.254 A 3.302 3.302 0 0 0 254.706 37.094 A 17.744 17.744 0 0 0 255.851 41.566 Q 258.23 47.251 264.65 47.251 Q 267.95 47.251 270.5 45.551 A 19.283 19.283 0 0 0 272.225 44.254 A 22.531 22.531 0 0 0 272.87 43.685 A 8.557 8.557 0 0 0 273.525 44.951 A 4.735 4.735 0 0 0 276.392 47.026 A 7.203 7.203 0 0 0 278.25 47.251 Q 280.344 47.251 282.592 45.816 A 16.7 16.7 0 0 0 284.912 43.994 A 8.404 8.404 0 0 0 285.275 45.251 A 4.228 4.228 0 0 0 285.646 45.995 Q 286.06 46.646 286.663 46.959 A 2.752 2.752 0 0 0 287.95 47.251 A 5.101 5.101 0 0 0 288.444 47.228 Q 289.621 47.114 290.225 46.426 A 2.934 2.934 0 0 0 290.55 45.964 Q 290.906 45.353 291.214 44.331 A 17.81 17.81 0 0 0 291.5 43.251 Q 292.25 40.201 293.475 37.451 A 40.649 40.649 0 0 1 294.094 36.124 Q 294.544 35.205 294.987 34.433 A 18.511 18.511 0 0 1 295.875 33.026 A 13.349 13.349 0 0 1 296.172 32.618 Q 296.85 31.727 297.33 31.462 A 0.78 0.78 0 0 1 297.7 31.351 Q 298.143 31.351 298.229 31.869 A 1.723 1.723 0 0 1 298.25 32.151 A 5.057 5.057 0 0 1 298.248 32.29 Q 298.214 33.526 297.6 36.501 A 93.886 93.886 0 0 0 297.501 37.017 Q 296.9 40.203 296.9 41.501 A 10.586 10.586 0 0 0 296.944 42.487 Q 297.025 43.354 297.256 44.069 A 4.754 4.754 0 0 0 298.2 45.776 A 3.933 3.933 0 0 0 298.876 46.385 Q 300.096 47.251 302.05 47.251 Q 305.2 47.251 307.675 45.551 A 19.825 19.825 0 0 0 309.633 44.013 A 23.98 23.98 0 0 0 309.689 43.962 A 7.85 7.85 0 0 0 310.4 45.001 A 5.93 5.93 0 0 0 312.997 46.865 A 6.889 6.889 0 0 0 315.35 47.251 A 5.257 5.257 0 0 0 316.706 47.07 A 6.545 6.545 0 0 0 318.075 46.526 Q 319.45 45.801 320.3 44.451 L 320 46.401 Q 314.466 50.677 311.463 53.985 A 23.402 23.402 0 0 0 309.5 56.426 Q 308.007 58.599 307.31 60.622 A 10.506 10.506 0 0 0 306.7 64.051 A 7.331 7.331 0 0 0 306.756 64.973 A 5.288 5.288 0 0 0 308.3 68.176 A 5.266 5.266 0 0 0 310.535 69.491 A 6.73 6.73 0 0 0 312.45 69.751 Q 315.976 69.751 318.578 66.487 A 16.306 16.306 0 0 0 320.275 63.826 A 37.514 37.514 0 0 0 322.265 59.19 Q 323.175 56.646 323.948 53.588 A 93.726 93.726 0 0 0 325.25 47.551 L 328.45 45.401 Q 330.45 44.001 334.75 41.101 A 3.962 3.962 0 0 0 335.312 40.652 A 2.878 2.878 0 0 0 335.85 39.951 Q 336.091 39.504 336.166 38.821 A 6.14 6.14 0 0 0 336.2 38.151 A 4.57 4.57 0 0 0 336.196 37.961 Q 336.162 37.137 335.825 36.576 A 1.637 1.637 0 0 0 335.668 36.356 A 1.093 1.093 0 0 0 334.8 35.951 A 1.495 1.495 0 0 0 334.439 35.998 Q 334.249 36.045 334.042 36.14 A 3.604 3.604 0 0 0 333.65 36.351 A 92.288 92.288 0 0 0 330.716 38.335 A 114.479 114.479 0 0 0 326.25 41.651 Q 326.5 40.051 326.725 38.626 A 354.941 354.941 0 0 1 326.944 37.257 A 274.964 274.964 0 0 1 327.15 36.001 Q 328.003 30.882 328.295 28.899 A 43.954 43.954 0 0 0 328.4 28.151 A 3.17 3.17 0 0 0 328.407 28.099 Q 328.436 27.872 328.445 27.552 A 11.757 11.757 0 0 0 328.45 27.201 A 4.4 4.4 0 0 0 328.449 27.1 Q 328.436 26.531 328.274 26.169 A 1.063 1.063 0 0 0 327.925 25.726 A 1.374 1.374 0 0 0 327.693 25.594 Q 327.323 25.426 326.73 25.374 A 6.659 6.659 0 0 0 326.15 25.351 A 15.164 15.164 0 0 0 325.945 25.352 Q 325.396 25.36 324.907 25.407 A 8.785 8.785 0 0 0 323.95 25.551 Q 323.774 24.777 323.537 24.338 A 1.67 1.67 0 0 0 323.325 24.026 A 0.884 0.884 0 0 0 323.135 23.865 Q 322.718 23.601 321.85 23.601 A 10.541 10.541 0 0 0 318.749 24.063 A 12.007 12.007 0 0 0 315.325 25.776 A 15.134 15.134 0 0 0 313.692 27.11 A 16.256 16.256 0 0 0 310.4 31.526 A 16.255 16.255 0 0 0 308.552 38.789 A 34.753 34.753 0 0 1 307.672 39.716 A 18.687 18.687 0 0 1 306.825 40.526 A 9.282 9.282 0 0 1 306.543 40.768 Q 305.805 41.374 305.182 41.606 A 2.098 2.098 0 0 1 304.45 41.751 A 2.034 2.034 0 0 1 304.386 41.75 Q 303 41.706 303 39.751 Q 303 38.351 303.95 34.001 Q 304.784 30.136 304.986 28.08 A 11.799 11.799 0 0 0 305.05 26.951 A 4.788 4.788 0 0 0 304.912 25.747 Q 304.379 23.701 301.8 23.701 A 5.169 5.169 0 0 0 300.933 23.776 Q 300.24 23.894 299.495 24.196 A 10.368 10.368 0 0 0 298.175 24.851 A 9.49 9.49 0 0 0 297.014 25.655 Q 296.288 26.239 295.551 27.028 A 21.479 21.479 0 0 0 294.15 28.701 A 19.642 19.642 0 0 0 293.326 29.876 Q 291.762 32.283 290.45 35.701 Q 290.575 34.326 290.739 33.224 A 25.166 25.166 0 0 1 290.95 32.001 Q 291.25 30.501 291.75 28.501 Q 292.5 25.701 292.5 24.901 A 2.049 2.049 0 0 0 292.487 24.658 Q 292.426 24.155 292.1 23.951 A 1.099 1.099 0 0 0 291.898 23.854 Q 291.486 23.702 290.714 23.701 A 8.007 8.007 0 0 0 290.7 23.701 Q 289.602 23.701 288.794 23.939 A 3.601 3.601 0 0 0 287.825 24.376 A 3.327 3.327 0 0 0 286.769 25.522 A 4.842 4.842 0 0 0 286.35 26.501 A 38.471 38.471 0 0 0 286.072 27.419 A 40.972 40.972 0 0 0 284.506 37.955 A 64.35 64.35 0 0 1 283.86 38.684 Q 283.363 39.236 282.931 39.683 A 21.313 21.313 0 0 1 282.1 40.501 Q 280.75 41.751 279.85 41.751 Q 278.9 41.751 278.5 40.951 A 2.488 2.488 0 0 1 278.457 40.86 Q 278.212 40.317 278.135 39.48 A 9.088 9.088 0 0 1 278.1 38.651 A 9.017 9.017 0 0 1 278.123 38.048 Q 278.229 36.479 278.833 33.437 A 121.544 121.544 0 0 1 279.3 31.201 Q 280.046 27.628 280.206 26.09 A 6.916 6.916 0 0 0 280.25 25.401 Q 280.25 23.701 277.7 23.701 Q 276.643 23.701 275.956 23.947 A 2.258 2.258 0 0 0 275.3 24.301 A 2.023 2.023 0 0 0 275.163 24.422 Q 274.711 24.855 274.377 25.68 A 7.851 7.851 0 0 0 274.1 26.501 A 48.361 48.361 0 0 0 273.471 28.855 A 57.57 57.57 0 0 0 272.625 33.076 A 58.086 58.086 0 0 0 272.31 35.252 Q 272.183 36.271 272.118 37.153 A 23.287 23.287 0 0 0 272.067 38.033 A 46.045 46.045 0 0 1 271.837 38.277 Q 271.182 38.962 270.59 39.511 A 17.85 17.85 0 0 1 269.5 40.451 Q 267.85 41.751 265.7 41.751 A 5.72 5.72 0 0 1 264.682 41.664 A 3.993 3.993 0 0 1 261.825 39.651 Q 260.906 38.076 260.677 34.757 A 35.003 35.003 0 0 1 260.6 32.351 A 50.97 50.97 0 0 1 260.606 31.634 Q 260.618 30.779 260.656 29.632 A 188.589 188.589 0 0 1 260.7 28.451 L 266.8 28.451 A 17.235 17.235 0 0 0 267.319 28.443 Q 272.45 28.289 272.45 25.001 A 4.476 4.476 0 0 0 272.443 24.735 Q 272.416 24.292 272.298 24.008 A 0.94 0.94 0 0 0 272.1 23.701 A 0.871 0.871 0 0 0 272.091 23.692 Q 271.838 23.447 271.359 23.378 A 2.884 2.884 0 0 0 270.95 23.351 L 265.35 23.351 A 23.765 23.765 0 0 0 267.137 21.6 A 16.914 16.914 0 0 0 271.85 9.851 Q 271.85 8.582 271.604 7.508 A 7.132 7.132 0 0 0 270.65 5.201 Q 269.45 3.351 267.35 3.351 Q 265.435 3.351 263.69 4.57 A 10.19 10.19 0 0 0 262.025 6.051 A 15.944 15.944 0 0 0 261.258 6.955 Q 259.272 9.473 257.8 13.301 Q 256.05 17.851 255.2 23.351 L 252.35 23.351 A 3.146 3.146 0 0 0 251.944 23.376 Q 250.514 23.562 250.193 25.129 A 5.116 5.116 0 0 0 250.1 26.151 Q 250.1 27.351 250.625 27.901 A 1.233 1.233 0 0 0 250.888 28.107 Q 251.285 28.344 251.971 28.418 A 6.388 6.388 0 0 0 252.65 28.451 L 254.6 28.451 Q 254.45 30.701 254.45 32.901 A 31.783 31.783 0 0 0 254.45 33.128 A 1.282 1.282 0 0 0 253.85 33.001 Q 253.4 33.001 252.95 33.051 Q 252.5 33.101 252.1 33.151 Q 249.65 33.501 247.65 33.501 Q 247.313 33.501 247.023 33.485 A 7.57 7.57 0 0 1 246.6 33.451 A 49.851 49.851 0 0 0 245.966 33.41 Q 245.456 33.38 245.006 33.365 A 24.829 24.829 0 0 0 244.2 33.351 A 0.887 0.887 0 0 0 244 33.375 Q 243.526 33.484 242.95 34.101 A 6.357 6.357 0 0 0 242.65 34.447 A 7.025 7.025 0 0 0 241.775 35.851 Q 241.345 36.756 241.345 37.374 A 1.656 1.656 0 0 0 241.35 37.501 A 115.558 115.558 0 0 1 241.972 40.482 A 96.893 96.893 0 0 1 242.775 45.201 Q 243.3 48.851 243.3 52.751 A 28.093 28.093 0 0 1 243.262 54.274 Q 243.062 57.951 241.8 57.951 Q 241.125 57.951 240.771 54.089 A 58.058 58.058 0 0 1 240.65 52.526 Q 240.3 47.101 240.3 41.951 A 60.132 60.132 0 0 1 240.319 40.46 Q 240.361 38.769 240.496 36.857 A 111.652 111.652 0 0 1 240.8 33.351 A 89.691 89.691 0 0 0 241.948 32.199 Q 254.85 19.011 254.85 7.751 Q 254.85 5.754 254.431 4.216 A 7.765 7.765 0 0 0 253.525 2.101 A 5.818 5.818 0 0 0 253.282 1.745 Q 251.992 0.001 249.85 0.001 A 5.757 5.757 0 0 0 248.494 0.162 Q 244.928 1.024 241.875 6.476 A 40.282 40.282 0 0 0 240.389 9.415 Q 237.804 15.073 236.175 22.826 A 94.523 94.523 0 0 0 234.223 37.7 A 62.463 62.463 0 0 1 233.326 38.714 Q 232.821 39.27 232.385 39.716 A 19.674 19.674 0 0 1 231.55 40.526 A 9.048 9.048 0 0 1 231.155 40.865 Q 230.481 41.409 229.917 41.619 A 1.918 1.918 0 0 1 229.25 41.751 A 1.52 1.52 0 0 1 229.14 41.747 A 1.197 1.197 0 0 1 228.275 41.301 Q 227.9 40.851 227.9 40.101 A 9.535 9.535 0 0 1 227.902 39.941 Q 227.94 37.652 229.05 32.101 A 153.483 153.483 0 0 0 229.144 31.605 Q 229.8 28.083 229.8 27.101 A 2.425 2.425 0 0 0 229.799 27.03 Q 229.76 25.686 228.214 25.418 A 5.081 5.081 0 0 0 227.35 25.351 A 12.987 12.987 0 0 0 227.029 25.355 A 11.556 11.556 0 0 0 225.15 25.551 Q 224.974 24.777 224.737 24.338 A 1.67 1.67 0 0 0 224.525 24.026 A 0.884 0.884 0 0 0 224.335 23.865 Q 223.918 23.601 223.05 23.601 A 10.541 10.541 0 0 0 219.949 24.063 A 12.007 12.007 0 0 0 216.525 25.776 A 15.134 15.134 0 0 0 214.892 27.11 A 16.256 16.256 0 0 0 211.6 31.526 A 16.255 16.255 0 0 0 210.723 33.52 A 9.324 9.324 0 0 1 210.481 33.686 Q 210.016 33.992 209.602 34.157 A 2.448 2.448 0 0 1 208.7 34.351 A 1.732 1.732 0 0 1 208.65 34.35 Q 207.689 34.322 207.498 33.218 A 3.63 3.63 0 0 1 207.45 32.601 A 2.814 2.814 0 0 1 207.468 32.326 Q 207.518 31.835 207.714 30.798 A 67.886 67.886 0 0 1 207.85 30.101 Q 208.216 28.07 208.284 27.26 A 3.791 3.791 0 0 0 208.3 26.951 A 4.788 4.788 0 0 0 208.162 25.747 Q 207.629 23.701 205.05 23.701 A 5.169 5.169 0 0 0 204.183 23.776 Q 203.49 23.894 202.745 24.196 A 10.368 10.368 0 0 0 201.425 24.851 A 9.49 9.49 0 0 0 200.264 25.655 Q 199.538 26.239 198.801 27.028 A 21.479 21.479 0 0 0 197.4 28.701 A 19.642 19.642 0 0 0 196.576 29.876 Q 195.012 32.283 193.7 35.701 Q 193.825 34.326 193.989 33.224 A 25.166 25.166 0 0 1 194.2 32.001 Q 194.5 30.501 195 28.501 Q 195.75 25.701 195.75 24.901 A 2.049 2.049 0 0 0 195.737 24.658 Q 195.676 24.155 195.35 23.951 A 1.099 1.099 0 0 0 195.148 23.854 Q 194.736 23.702 193.964 23.701 A 8.007 8.007 0 0 0 193.95 23.701 Q 192.852 23.701 192.044 23.939 A 3.601 3.601 0 0 0 191.075 24.376 A 3.327 3.327 0 0 0 190.019 25.522 A 4.842 4.842 0 0 0 189.6 26.501 A 38.471 38.471 0 0 0 189.322 27.419 A 40.972 40.972 0 0 0 187.757 37.881 A 20.9 20.9 0 0 1 186.485 39.085 A 14.571 14.571 0 0 1 184.275 40.676 Q 181.9 42.051 179.85 42.051 A 7.185 7.185 0 0 1 178.557 41.941 Q 174.8 41.253 174.8 36.251 A 13.629 13.629 0 0 1 174.859 34.973 A 11.118 11.118 0 0 1 175.4 32.401 A 10.696 10.696 0 0 1 175.516 32.079 Q 175.775 31.396 176.1 30.832 A 6.026 6.026 0 0 1 177 29.626 A 4.791 4.791 0 0 1 177.006 29.62 Q 178.003 28.601 179.15 28.601 A 2.028 2.028 0 0 1 179.177 28.601 Q 179.758 28.609 180.075 28.951 Q 180.295 29.187 180.366 29.561 A 2.085 2.085 0 0 1 180.4 29.951 A 3.856 3.856 0 0 1 180.334 30.648 A 5.197 5.197 0 0 1 180.15 31.351 Q 180.1 31.551 180 32.001 A 5.298 5.298 0 0 0 179.974 32.126 Q 179.9 32.5 179.9 32.801 A 2.071 2.071 0 0 0 179.908 32.978 A 1.461 1.461 0 0 0 180.475 34.051 Q 180.844 34.339 181.366 34.443 A 3.261 3.261 0 0 0 182 34.501 A 2.583 2.583 0 0 0 183.761 33.843 A 3.671 3.671 0 0 0 184.425 33.051 A 5.704 5.704 0 0 0 185.186 31.157 A 7.917 7.917 0 0 0 185.35 29.501 A 7.612 7.612 0 0 0 185.277 28.43 A 5.558 5.558 0 0 0 183.825 25.326 A 4.969 4.969 0 0 0 181.296 23.893 A 7.479 7.479 0 0 0 179.55 23.701 Q 176.75 23.701 174.2 25.351 A 11.148 11.148 0 0 0 171.986 27.242 A 13.517 13.517 0 0 0 170.05 30.051 A 13.457 13.457 0 0 0 168.826 33.462 A 17.344 17.344 0 0 0 168.45 37.151 A 13.209 13.209 0 0 0 168.622 39.323 A 9.349 9.349 0 0 0 171.175 44.476 Q 172.964 46.297 175.688 46.923 Z M 370.697 41.943 L 362.35 47.551 A 93.726 93.726 0 0 1 361.048 53.588 Q 360.275 56.646 359.365 59.19 A 37.514 37.514 0 0 1 357.375 63.826 A 16.306 16.306 0 0 1 355.678 66.487 Q 353.076 69.751 349.55 69.751 A 6.73 6.73 0 0 1 347.635 69.491 A 5.266 5.266 0 0 1 345.4 68.176 A 5.288 5.288 0 0 1 343.856 64.973 A 7.331 7.331 0 0 1 343.8 64.051 A 11.21 11.21 0 0 1 344.332 60.697 A 13.948 13.948 0 0 1 344.875 59.251 Q 345.945 56.813 348.845 53.658 A 42.681 42.681 0 0 1 348.875 53.626 A 42.065 42.065 0 0 1 351.173 51.334 Q 353.639 49.042 357.15 46.351 L 357.3 45.201 A 48.01 48.01 0 0 0 357.481 44.176 Q 357.675 43.016 357.895 41.43 A 190.089 190.089 0 0 0 358.1 39.901 A 18.522 18.522 0 0 1 357.318 42.172 Q 356.481 44.145 355.3 45.376 A 7.491 7.491 0 0 1 354.097 46.405 Q 352.844 47.251 351.5 47.251 A 4.129 4.129 0 0 1 348.294 45.777 A 6.104 6.104 0 0 1 347.825 45.176 A 7.877 7.877 0 0 1 346.626 42.309 A 11.173 11.173 0 0 1 346.4 40.001 A 49.005 49.005 0 0 1 346.55 36.086 A 37.965 37.965 0 0 1 346.9 33.126 Q 347.4 30.001 348.55 26.501 A 6.243 6.243 0 0 1 348.921 25.608 Q 349.346 24.788 349.95 24.351 A 2.785 2.785 0 0 1 350.693 23.981 Q 351.407 23.739 352.459 23.706 A 10.875 10.875 0 0 1 352.8 23.701 Q 353.9 23.701 354.325 24.051 A 1.118 1.118 0 0 1 354.698 24.652 Q 354.746 24.839 354.75 25.063 A 2.26 2.26 0 0 1 354.75 25.101 A 1.736 1.736 0 0 1 354.731 25.318 Q 354.647 25.932 354.2 27.801 A 62.005 62.005 0 0 0 353.763 29.511 Q 353.568 30.323 353.42 31.054 A 37.062 37.062 0 0 0 353.4 31.151 Q 353 33.201 352.7 35.076 A 31.704 31.704 0 0 0 352.542 36.182 Q 352.471 36.752 352.436 37.242 A 12.683 12.683 0 0 0 352.4 38.151 A 5.135 5.135 0 0 0 352.437 38.797 Q 352.522 39.464 352.804 39.777 A 0.829 0.829 0 0 0 353.45 40.051 A 1.043 1.043 0 0 0 353.922 39.922 Q 354.502 39.626 355.253 38.646 A 11.298 11.298 0 0 0 355.325 38.551 Q 356.341 37.196 357.48 34.576 A 44.534 44.534 0 0 0 357.725 34.001 A 44.182 44.182 0 0 0 358.671 31.517 Q 359.158 30.12 359.634 28.51 A 87.681 87.681 0 0 0 360.2 26.501 A 6.168 6.168 0 0 1 360.492 25.646 Q 360.681 25.209 360.923 24.878 A 2.685 2.685 0 0 1 361.425 24.351 A 2.627 2.627 0 0 1 362.223 23.933 Q 362.59 23.81 363.04 23.752 A 6.771 6.771 0 0 1 363.9 23.701 A 6.957 6.957 0 0 1 364.431 23.72 Q 364.945 23.759 365.265 23.882 A 1.201 1.201 0 0 1 365.5 24.001 A 0.959 0.959 0 0 1 365.897 24.567 Q 365.944 24.736 365.949 24.942 A 2.099 2.099 0 0 1 365.95 25.001 A 7.309 7.309 0 0 1 365.905 25.684 Q 365.706 27.629 364.65 33.601 L 363.35 41.651 A 150.019 150.019 0 0 1 368.781 37.74 A 129.334 129.334 0 0 1 369.605 37.18 A 12.277 12.277 0 0 1 369.602 36.969 A 14.138 14.138 0 0 1 369.6 36.751 A 17.018 17.018 0 0 1 370.003 32.973 A 13.786 13.786 0 0 1 371.05 29.976 Q 372.5 27.001 375.05 25.326 Q 377.6 23.651 380.7 23.651 A 8.907 8.907 0 0 1 383.619 24.11 A 7.491 7.491 0 0 1 386.825 26.276 A 10.93 10.93 0 0 1 389.377 31.571 A 13.829 13.829 0 0 1 389.55 32.751 A 21.544 21.544 0 0 0 391.439 32.54 A 32.712 32.712 0 0 0 393.574 32.134 A 39.331 39.331 0 0 1 394.223 29.283 A 49.435 49.435 0 0 1 395.05 26.501 A 6.243 6.243 0 0 1 395.421 25.608 Q 395.846 24.788 396.45 24.351 A 2.785 2.785 0 0 1 397.193 23.981 Q 397.907 23.739 398.959 23.706 A 10.875 10.875 0 0 1 399.3 23.701 Q 400.4 23.701 400.825 24.051 A 1.118 1.118 0 0 1 401.198 24.652 Q 401.246 24.839 401.25 25.063 A 2.26 2.26 0 0 1 401.25 25.101 A 1.736 1.736 0 0 1 401.231 25.318 Q 401.147 25.932 400.7 27.801 A 62.005 62.005 0 0 0 400.263 29.511 Q 400.068 30.323 399.92 31.054 A 37.062 37.062 0 0 0 399.9 31.151 A 138.226 138.226 0 0 0 399.511 33.28 Q 399.008 36.168 398.919 37.604 A 8.996 8.996 0 0 0 398.9 38.151 Q 398.9 38.967 399.051 39.405 A 1.215 1.215 0 0 0 399.15 39.626 Q 399.4 40.051 399.95 40.051 A 1.043 1.043 0 0 0 400.422 39.922 Q 401.002 39.626 401.753 38.646 A 11.298 11.298 0 0 0 401.825 38.551 Q 402.841 37.196 403.98 34.576 A 44.534 44.534 0 0 0 404.225 34.001 A 44.182 44.182 0 0 0 405.171 31.517 Q 405.658 30.12 406.134 28.51 A 87.681 87.681 0 0 0 406.7 26.501 A 6.168 6.168 0 0 1 406.992 25.646 Q 407.181 25.209 407.423 24.878 A 2.685 2.685 0 0 1 407.925 24.351 A 2.627 2.627 0 0 1 408.723 23.933 Q 409.09 23.81 409.54 23.752 A 6.771 6.771 0 0 1 410.4 23.701 A 7.587 7.587 0 0 1 410.931 23.718 Q 411.663 23.77 412 23.976 A 0.864 0.864 0 0 1 412.364 24.436 Q 412.45 24.673 412.45 25.001 A 5.788 5.788 0 0 1 412.406 25.623 Q 412.231 27.168 411.356 31.149 A 223.797 223.797 0 0 1 411.2 31.851 A 213.155 213.155 0 0 0 410.724 34.079 Q 409.8 38.532 409.8 39.751 A 3.659 3.659 0 0 0 409.839 40.303 Q 409.885 40.602 409.984 40.843 A 1.674 1.674 0 0 0 410.2 41.226 A 1.354 1.354 0 0 0 410.606 41.589 Q 410.881 41.746 411.228 41.751 A 1.591 1.591 0 0 0 411.25 41.751 A 2.098 2.098 0 0 0 411.982 41.606 Q 412.605 41.374 413.343 40.768 A 9.282 9.282 0 0 0 413.625 40.526 Q 414.383 39.851 415.42 38.714 A 58.303 58.303 0 0 0 416.106 37.947 A 40.972 40.972 0 0 1 417.672 27.419 A 38.471 38.471 0 0 1 417.95 26.501 A 4.842 4.842 0 0 1 418.369 25.522 A 3.327 3.327 0 0 1 419.425 24.376 A 3.601 3.601 0 0 1 420.394 23.939 Q 421.202 23.701 422.3 23.701 A 8.007 8.007 0 0 1 422.314 23.701 Q 423.086 23.702 423.498 23.854 A 1.099 1.099 0 0 1 423.7 23.951 Q 424.026 24.155 424.087 24.658 A 2.049 2.049 0 0 1 424.1 24.901 Q 424.1 25.701 423.35 28.501 Q 422.85 30.501 422.55 32.001 A 25.166 25.166 0 0 0 422.339 33.224 Q 422.175 34.326 422.05 35.701 Q 423.362 32.283 424.926 29.876 A 19.642 19.642 0 0 1 425.75 28.701 A 21.479 21.479 0 0 1 427.151 27.028 Q 427.888 26.239 428.614 25.655 A 9.49 9.49 0 0 1 429.775 24.851 A 10.368 10.368 0 0 1 431.095 24.196 Q 431.84 23.894 432.533 23.776 A 5.169 5.169 0 0 1 433.4 23.701 Q 435.979 23.701 436.512 25.747 A 4.788 4.788 0 0 1 436.65 26.951 A 3.791 3.791 0 0 1 436.634 27.26 Q 436.566 28.07 436.2 30.101 A 67.886 67.886 0 0 0 436.064 30.798 Q 435.868 31.835 435.818 32.326 A 2.814 2.814 0 0 0 435.8 32.601 A 3.63 3.63 0 0 0 435.848 33.218 Q 436.039 34.322 437 34.35 A 1.732 1.732 0 0 0 437.05 34.351 A 2.448 2.448 0 0 0 437.952 34.157 Q 438.758 33.836 439.757 32.982 A 15.644 15.644 0 0 0 440.65 32.151 A 2.737 2.737 0 0 1 441.082 31.794 Q 441.53 31.501 442 31.501 A 1.135 1.135 0 0 1 442.888 31.895 A 1.538 1.538 0 0 1 443.025 32.076 A 2.126 2.126 0 0 1 443.294 32.694 Q 443.367 32.969 443.39 33.295 A 4.362 4.362 0 0 1 443.4 33.601 Q 443.4 35.451 442.4 36.501 A 13.495 13.495 0 0 1 439.271 38.895 A 15.115 15.115 0 0 1 439.125 38.976 Q 437.25 40.001 435.15 40.001 Q 433.297 40.001 432.068 39.341 A 4.113 4.113 0 0 1 431.125 38.651 A 4.491 4.491 0 0 1 429.859 36.222 A 6.515 6.515 0 0 1 429.75 35.001 Q 429.75 34.251 429.9 33.501 Q 430 32.501 430 32.151 A 1.723 1.723 0 0 0 429.979 31.869 Q 429.893 31.351 429.45 31.351 Q 428.7 31.351 427.475 33.026 A 16.497 16.497 0 0 0 426.56 34.433 Q 426.109 35.205 425.661 36.124 A 35.046 35.046 0 0 0 425.05 37.451 Q 423.85 40.201 423.1 43.251 A 17.81 17.81 0 0 1 422.814 44.331 Q 422.506 45.353 422.15 45.964 A 2.934 2.934 0 0 1 421.825 46.426 Q 421.221 47.114 420.044 47.228 A 5.101 5.101 0 0 1 419.55 47.251 A 2.752 2.752 0 0 1 418.263 46.959 Q 417.66 46.646 417.246 45.995 A 4.228 4.228 0 0 1 416.875 45.251 A 8.404 8.404 0 0 1 416.503 43.949 A 23.98 23.98 0 0 1 416.433 44.013 A 19.825 19.825 0 0 1 414.475 45.551 Q 412 47.251 408.85 47.251 A 4.894 4.894 0 0 1 407.412 47.052 A 3.625 3.625 0 0 1 405.325 45.401 A 6.698 6.698 0 0 1 404.619 43.731 Q 404.2 42.246 404.2 40.201 A 16.752 16.752 0 0 1 403.515 42.352 Q 403.07 43.466 402.496 44.341 A 8.138 8.138 0 0 1 401.65 45.426 A 6.983 6.983 0 0 1 400.508 46.427 Q 399.656 47.013 398.748 47.182 A 4.073 4.073 0 0 1 398 47.251 A 4.129 4.129 0 0 1 394.794 45.777 A 6.104 6.104 0 0 1 394.325 45.176 A 7.877 7.877 0 0 1 393.126 42.309 A 11.173 11.173 0 0 1 392.9 40.001 A 49.005 49.005 0 0 1 392.957 37.559 A 21.445 21.445 0 0 1 391.355 37.818 A 26.153 26.153 0 0 1 389.15 38.001 A 14.256 14.256 0 0 1 387.853 41.57 A 11.459 11.459 0 0 1 385.4 44.726 A 9.911 9.911 0 0 1 382.326 46.654 A 9.026 9.026 0 0 1 379.05 47.251 A 10.353 10.353 0 0 1 376.511 46.953 A 8.035 8.035 0 0 1 373.925 45.801 Q 371.8 44.351 370.7 41.951 A 12.277 12.277 0 0 1 370.697 41.943 Z M 675.85 28.451 L 673.9 28.451 A 6.388 6.388 0 0 1 673.221 28.418 Q 672.535 28.344 672.138 28.107 A 1.233 1.233 0 0 1 671.875 27.901 Q 671.35 27.351 671.35 26.151 A 5.116 5.116 0 0 1 671.443 25.129 Q 671.764 23.562 673.194 23.376 A 3.146 3.146 0 0 1 673.6 23.351 L 676.45 23.351 Q 677.3 17.851 679.05 13.301 Q 680.522 9.473 682.508 6.955 A 15.944 15.944 0 0 1 683.275 6.051 A 10.19 10.19 0 0 1 684.94 4.57 Q 686.685 3.351 688.6 3.351 Q 690.7 3.351 691.9 5.201 A 7.132 7.132 0 0 1 692.854 7.508 Q 693.1 8.582 693.1 9.851 A 16.914 16.914 0 0 1 688.387 21.6 A 23.765 23.765 0 0 1 686.6 23.351 L 692.2 23.351 A 2.884 2.884 0 0 1 692.609 23.378 Q 693.088 23.447 693.341 23.692 A 0.871 0.871 0 0 1 693.35 23.701 A 0.94 0.94 0 0 1 693.548 24.008 Q 693.666 24.292 693.693 24.735 A 4.476 4.476 0 0 1 693.7 25.001 Q 693.7 28.289 688.569 28.443 A 17.235 17.235 0 0 1 688.05 28.451 L 681.95 28.451 A 188.589 188.589 0 0 0 681.906 29.632 Q 681.868 30.779 681.856 31.634 A 50.97 50.97 0 0 0 681.85 32.351 A 35.003 35.003 0 0 0 681.927 34.757 Q 682.156 38.076 683.075 39.651 A 3.993 3.993 0 0 0 685.932 41.664 A 5.72 5.72 0 0 0 686.95 41.751 Q 689.1 41.751 690.75 40.451 A 17.85 17.85 0 0 0 691.84 39.511 Q 692.432 38.962 693.087 38.277 A 46.045 46.045 0 0 0 693.457 37.883 A 40.972 40.972 0 0 1 695.022 27.419 A 38.471 38.471 0 0 1 695.3 26.501 A 4.842 4.842 0 0 1 695.719 25.522 A 3.327 3.327 0 0 1 696.775 24.376 A 3.601 3.601 0 0 1 697.744 23.939 Q 698.552 23.701 699.65 23.701 A 8.007 8.007 0 0 1 699.664 23.701 Q 700.436 23.702 700.848 23.854 A 1.099 1.099 0 0 1 701.05 23.951 Q 701.376 24.155 701.437 24.658 A 2.049 2.049 0 0 1 701.45 24.901 Q 701.45 25.701 700.7 28.501 Q 700.2 30.501 699.9 32.001 A 25.166 25.166 0 0 0 699.689 33.224 Q 699.525 34.326 699.4 35.701 Q 700.712 32.283 702.276 29.876 A 19.642 19.642 0 0 1 703.1 28.701 A 21.479 21.479 0 0 1 704.501 27.028 Q 705.238 26.239 705.964 25.655 A 9.49 9.49 0 0 1 707.125 24.851 A 10.368 10.368 0 0 1 708.445 24.196 Q 709.19 23.894 709.883 23.776 A 5.169 5.169 0 0 1 710.75 23.701 Q 713.329 23.701 713.862 25.747 A 4.788 4.788 0 0 1 714 26.951 A 3.791 3.791 0 0 1 713.984 27.26 Q 713.916 28.07 713.55 30.101 A 67.886 67.886 0 0 0 713.414 30.798 Q 713.218 31.835 713.168 32.326 A 2.814 2.814 0 0 0 713.15 32.601 A 3.63 3.63 0 0 0 713.198 33.218 Q 713.389 34.322 714.35 34.35 A 1.732 1.732 0 0 0 714.4 34.351 A 2.448 2.448 0 0 0 715.302 34.157 Q 715.716 33.992 716.181 33.686 A 9.324 9.324 0 0 0 716.571 33.412 A 58.086 58.086 0 0 1 716.625 33.076 A 57.57 57.57 0 0 1 717.471 28.855 A 48.361 48.361 0 0 1 718.1 26.501 A 7.851 7.851 0 0 1 718.377 25.68 Q 718.711 24.855 719.163 24.422 A 2.023 2.023 0 0 1 719.3 24.301 A 2.258 2.258 0 0 1 719.956 23.947 Q 720.643 23.701 721.7 23.701 Q 724.25 23.701 724.25 25.401 A 6.916 6.916 0 0 1 724.206 26.09 Q 724.046 27.628 723.3 31.201 A 121.544 121.544 0 0 0 722.833 33.437 Q 722.229 36.479 722.123 38.048 A 9.017 9.017 0 0 0 722.1 38.651 A 9.088 9.088 0 0 0 722.135 39.48 Q 722.212 40.317 722.457 40.86 A 2.488 2.488 0 0 0 722.5 40.951 Q 722.9 41.751 723.85 41.751 Q 724.75 41.751 726.1 40.501 A 21.313 21.313 0 0 0 726.931 39.683 Q 727.363 39.236 727.86 38.684 A 64.35 64.35 0 0 0 728.519 37.94 A 111.418 111.418 0 0 1 729.25 36.701 Q 729.25 29.401 729.15 26.551 Q 729.1 25.101 730.3 24.251 A 4.499 4.499 0 0 1 732.01 23.525 A 6.354 6.354 0 0 1 733.3 23.401 A 4.104 4.104 0 0 1 733.844 23.434 Q 734.449 23.515 734.787 23.793 A 1.177 1.177 0 0 1 734.825 23.826 A 1.172 1.172 0 0 1 735.096 24.205 Q 735.268 24.567 735.326 25.149 A 5.911 5.911 0 0 1 735.35 25.501 Q 735.35 26.728 735.398 27.329 A 7.195 7.195 0 0 0 735.4 27.351 Q 737 25.351 738.55 24.476 Q 740.1 23.601 741.85 23.601 Q 744.65 23.601 746.425 25.851 Q 748.2 28.101 748.2 31.751 Q 748.2 34.401 747.35 36.901 Q 746.5 39.401 745 41.451 A 10.308 10.308 0 0 0 745.622 41.609 Q 745.946 41.68 746.228 41.715 A 4.209 4.209 0 0 0 746.75 41.751 A 4.648 4.648 0 0 0 749.069 41.117 A 6.298 6.298 0 0 0 749.9 40.551 Q 751.4 39.351 753.75 36.551 A 2.382 2.382 0 0 1 754.17 36.16 A 1.569 1.569 0 0 1 755.1 35.851 A 1.113 1.113 0 0 1 755.975 36.247 A 1.582 1.582 0 0 1 756.125 36.451 Q 756.411 36.908 756.479 37.627 A 5.04 5.04 0 0 1 756.5 38.101 A 6.766 6.766 0 0 1 756.398 39.317 Q 756.189 40.462 755.55 41.201 A 23.98 23.98 0 0 1 752.883 44.013 A 19.825 19.825 0 0 1 750.925 45.551 Q 748.45 47.251 745.3 47.251 A 6.004 6.004 0 0 1 743.173 46.887 A 5.339 5.339 0 0 1 741 45.351 A 11.943 11.943 0 0 1 737.715 46.863 A 10.467 10.467 0 0 1 735.05 47.251 A 83.898 83.898 0 0 1 734.331 54.042 Q 733.538 59.329 732.1 63.376 A 17.183 17.183 0 0 1 730.948 65.978 Q 730.224 67.279 729.354 68.143 A 5.505 5.505 0 0 1 725.35 69.851 A 5.891 5.891 0 0 1 723.729 69.641 A 4.144 4.144 0 0 1 721.35 67.901 A 6.897 6.897 0 0 1 720.485 65.989 Q 720.05 64.495 720.05 62.501 A 26.261 26.261 0 0 1 720.422 58.251 Q 720.964 54.95 722.3 51.076 A 61.35 61.35 0 0 1 723.869 47.04 A 9.276 9.276 0 0 1 723.742 47.074 A 6.509 6.509 0 0 1 722.25 47.251 A 7.203 7.203 0 0 1 720.392 47.026 A 4.735 4.735 0 0 1 717.525 44.951 A 8.557 8.557 0 0 1 716.479 42.512 Q 716.186 41.41 716.093 40.104 A 17.7 17.7 0 0 1 716.053 39.194 A 8.165 8.165 0 0 1 712.5 40.001 Q 710.647 40.001 709.418 39.341 A 4.113 4.113 0 0 1 708.475 38.651 A 4.491 4.491 0 0 1 707.209 36.222 A 6.515 6.515 0 0 1 707.1 35.001 Q 707.1 34.251 707.25 33.501 Q 707.35 32.501 707.35 32.151 A 1.723 1.723 0 0 0 707.329 31.869 Q 707.243 31.351 706.8 31.351 Q 706.05 31.351 704.825 33.026 A 16.497 16.497 0 0 0 703.91 34.433 Q 703.459 35.205 703.011 36.124 A 35.046 35.046 0 0 0 702.4 37.451 Q 701.2 40.201 700.45 43.251 A 17.81 17.81 0 0 1 700.164 44.331 Q 699.856 45.353 699.5 45.964 A 2.934 2.934 0 0 1 699.175 46.426 Q 698.571 47.114 697.394 47.228 A 5.101 5.101 0 0 1 696.9 47.251 A 2.752 2.752 0 0 1 695.613 46.959 Q 695.01 46.646 694.596 45.995 A 4.228 4.228 0 0 1 694.225 45.251 A 8.404 8.404 0 0 1 693.851 43.936 A 16.324 16.324 0 0 1 693.849 43.929 A 22.531 22.531 0 0 1 693.475 44.254 A 19.283 19.283 0 0 1 691.75 45.551 Q 689.2 47.251 685.9 47.251 Q 677.295 47.251 675.95 37.037 A 31.783 31.783 0 0 1 675.7 32.901 Q 675.7 30.701 675.85 28.451 Z M 60.448 25.44 A 4.194 4.194 0 0 0 59.85 25.401 A 50.046 50.046 0 0 1 58.898 25.392 Q 56.042 25.338 53.85 24.951 A 54.449 54.449 0 0 0 54.314 23.589 Q 55.266 20.664 55.762 17.972 A 30.79 30.79 0 0 0 56.3 12.401 A 15.766 15.766 0 0 0 56.271 11.428 Q 56.187 10.067 55.86 8.925 A 7.803 7.803 0 0 0 54.425 6.101 A 5.989 5.989 0 0 0 51.711 4.173 A 7.16 7.16 0 0 0 49.35 3.801 Q 46.75 3.801 44.625 5.151 A 8.111 8.111 0 0 0 42.519 7.105 A 10.759 10.759 0 0 0 41.275 9.226 Q 40.05 11.951 40.05 15.901 A 17.948 17.948 0 0 0 40.233 18.507 A 13.947 13.947 0 0 0 41.6 22.876 A 12.157 12.157 0 0 0 42.529 24.404 A 12.694 12.694 0 0 0 46.2 27.801 Q 44.937 30.585 43.541 32.898 A 34.306 34.306 0 0 1 40.8 36.826 Q 37.85 40.451 35.45 40.451 A 4.612 4.612 0 0 1 35.133 40.44 Q 33.315 40.315 32.325 38.726 Q 31.585 37.538 31.177 35.604 A 20.382 20.382 0 0 1 30.875 33.701 A 36.821 36.821 0 0 1 30.842 33.395 Q 30.612 31.211 30.537 28.1 A 134.874 134.874 0 0 1 30.5 24.851 Q 30.5 16.701 31.9 8.551 Q 32 8.101 32 7.301 Q 32 6.689 31.851 6.216 A 2.129 2.129 0 0 0 31.275 5.276 A 2.179 2.179 0 0 0 30.554 4.84 Q 29.924 4.601 29 4.601 Q 28.126 4.601 27.425 4.796 A 3.668 3.668 0 0 0 26.075 5.476 A 2.593 2.593 0 0 0 25.92 5.613 Q 25.255 6.249 24.874 7.485 A 9.485 9.485 0 0 0 24.6 8.651 Q 22.9 18.651 20.45 25.876 A 93.785 93.785 0 0 1 19.976 27.24 Q 18.527 31.306 17.07 34.132 A 26.44 26.44 0 0 1 15.525 36.776 Q 13.785 39.36 12.403 40.127 A 2.284 2.284 0 0 1 11.3 40.451 Q 9.746 40.451 8.7 38.133 A 12.063 12.063 0 0 1 8.2 36.801 A 15.762 15.762 0 0 1 8.023 36.195 Q 7.05 32.613 7.05 26.451 Q 7.05 21.951 7.636 16.26 A 171.737 171.737 0 0 1 8.55 9.001 A 48.341 48.341 0 0 0 8.583 8.663 Q 8.631 8.145 8.645 7.851 A 4.393 4.393 0 0 0 8.65 7.651 A 7.175 7.175 0 0 0 8.649 7.526 Q 8.633 6.597 8.374 5.993 A 1.851 1.851 0 0 0 7.825 5.251 Q 7.264 4.809 6.392 4.668 A 5.58 5.58 0 0 0 5.5 4.601 A 6.89 6.89 0 0 0 4.686 4.646 Q 4.128 4.713 3.677 4.877 A 2.812 2.812 0 0 0 2.575 5.576 A 2.816 2.816 0 0 0 2.298 5.922 Q 1.817 6.622 1.527 7.83 A 12.932 12.932 0 0 0 1.3 9.051 A 129.355 129.355 0 0 0 0.367 16.982 A 97.142 97.142 0 0 0 0 25.201 A 68.989 68.989 0 0 0 0.221 30.895 Q 0.472 33.911 1.006 36.449 A 27.856 27.856 0 0 0 2.45 41.276 A 17.479 17.479 0 0 0 2.787 42.046 Q 3.469 43.504 4.311 44.554 A 6.649 6.649 0 0 0 9.7 47.251 A 8.398 8.398 0 0 0 12.059 46.913 Q 15.015 46.052 17.725 43.001 A 18.595 18.595 0 0 0 17.897 42.805 Q 20.395 39.912 22.55 35.054 A 63.079 63.079 0 0 0 24.5 30.051 A 51.787 51.787 0 0 0 24.808 34.124 Q 25.096 36.568 25.617 38.623 A 21.956 21.956 0 0 0 27 42.576 A 10.609 10.609 0 0 0 28.259 44.649 A 6.496 6.496 0 0 0 33.6 47.251 Q 36.975 47.251 40.412 44.816 A 22.759 22.759 0 0 0 43.325 42.326 Q 48.25 37.401 51.75 29.951 A 28.125 28.125 0 0 0 54.848 30.404 A 37.498 37.498 0 0 0 57.725 30.551 A 14.468 14.468 0 0 0 56.45 36.601 A 13.948 13.948 0 0 0 56.741 39.523 A 9.433 9.433 0 0 0 59.35 44.401 A 8.901 8.901 0 0 0 60.585 45.414 Q 62.155 46.482 64.238 46.929 A 15.547 15.547 0 0 0 67.5 47.251 Q 71.35 47.251 74.725 45.351 A 26.816 26.816 0 0 0 75.607 44.832 Q 78.35 43.148 79.95 41.201 Q 80.589 40.462 80.798 39.317 A 6.766 6.766 0 0 0 80.9 38.101 A 5.04 5.04 0 0 0 80.879 37.627 Q 80.811 36.908 80.525 36.451 A 1.582 1.582 0 0 0 80.375 36.247 A 1.113 1.113 0 0 0 79.5 35.851 A 1.569 1.569 0 0 0 78.57 36.16 A 2.382 2.382 0 0 0 78.15 36.551 Q 76.05 39.101 73.175 40.676 A 17.197 17.197 0 0 1 71.825 41.344 Q 70.864 41.765 69.981 41.991 A 7.807 7.807 0 0 1 68.05 42.251 A 9.944 9.944 0 0 1 67.562 42.239 Q 64.461 42.087 63.3 39.951 A 38.718 38.718 0 0 0 64.064 39.755 Q 69.363 38.338 71.675 36.026 A 9.972 9.972 0 0 0 71.752 35.948 A 8.071 8.071 0 0 0 74.15 30.101 A 8.34 8.34 0 0 0 73.996 28.457 A 5.73 5.73 0 0 0 72.4 25.426 A 5.766 5.766 0 0 0 69.764 23.944 A 7.927 7.927 0 0 0 67.75 23.701 A 10.123 10.123 0 0 0 61.925 25.451 A 11.512 11.512 0 0 0 61.422 25.813 A 1.565 1.565 0 0 0 60.996 25.578 Q 60.753 25.484 60.448 25.44 Z M 93.897 46.865 A 6.889 6.889 0 0 0 96.25 47.251 A 6.761 6.761 0 0 0 101.14 45.172 A 11.326 11.326 0 0 0 102.8 43.051 A 8.336 8.336 0 0 0 103.311 44.202 A 6.358 6.358 0 0 0 104.875 46.126 A 5.85 5.85 0 0 0 105.092 46.295 A 4.61 4.61 0 0 0 107.9 47.251 Q 110.05 47.251 112.35 45.501 A 22.494 22.494 0 0 0 114.04 44.076 A 27.043 27.043 0 0 0 114.115 44.006 A 8.404 8.404 0 0 0 114.475 45.251 A 4.228 4.228 0 0 0 114.846 45.995 Q 115.26 46.646 115.863 46.959 A 2.752 2.752 0 0 0 117.15 47.251 A 5.101 5.101 0 0 0 117.644 47.228 Q 118.821 47.114 119.425 46.426 A 2.934 2.934 0 0 0 119.75 45.964 Q 120.106 45.353 120.414 44.331 A 17.81 17.81 0 0 0 120.7 43.251 Q 121.45 40.201 122.65 37.451 A 35.046 35.046 0 0 1 123.261 36.124 Q 123.709 35.205 124.16 34.433 A 16.497 16.497 0 0 1 125.075 33.026 Q 126.3 31.351 127.05 31.351 Q 127.493 31.351 127.579 31.869 A 1.723 1.723 0 0 1 127.6 32.151 Q 127.6 32.501 127.5 33.501 Q 127.35 34.251 127.35 35.001 A 6.515 6.515 0 0 0 127.459 36.222 A 4.491 4.491 0 0 0 128.725 38.651 A 4.113 4.113 0 0 0 129.668 39.341 Q 130.897 40.001 132.75 40.001 A 8.165 8.165 0 0 0 135.864 39.39 A 13.948 13.948 0 0 0 135.891 39.523 A 9.433 9.433 0 0 0 138.5 44.401 A 8.901 8.901 0 0 0 139.735 45.414 Q 141.305 46.482 143.388 46.929 A 15.547 15.547 0 0 0 146.65 47.251 Q 150.5 47.251 153.875 45.351 A 26.816 26.816 0 0 0 154.757 44.832 Q 157.5 43.148 159.1 41.201 Q 159.739 40.462 159.948 39.317 A 6.766 6.766 0 0 0 160.05 38.101 A 5.04 5.04 0 0 0 160.029 37.627 Q 159.961 36.908 159.675 36.451 A 1.582 1.582 0 0 0 159.525 36.247 A 1.113 1.113 0 0 0 158.65 35.851 A 1.569 1.569 0 0 0 157.72 36.16 A 2.382 2.382 0 0 0 157.3 36.551 Q 155.2 39.101 152.325 40.676 A 17.197 17.197 0 0 1 150.975 41.344 Q 150.014 41.765 149.131 41.991 A 7.807 7.807 0 0 1 147.2 42.251 A 9.944 9.944 0 0 1 146.712 42.239 Q 143.611 42.087 142.45 39.951 A 38.718 38.718 0 0 0 143.214 39.755 Q 148.513 38.338 150.825 36.026 A 9.972 9.972 0 0 0 150.902 35.948 A 8.071 8.071 0 0 0 153.3 30.101 A 8.34 8.34 0 0 0 153.146 28.457 A 5.73 5.73 0 0 0 151.55 25.426 A 5.766 5.766 0 0 0 148.914 23.944 A 7.927 7.927 0 0 0 146.9 23.701 Q 143.65 23.701 141.075 25.451 A 11.512 11.512 0 0 0 139.711 26.536 A 12.196 12.196 0 0 0 137.05 30.176 A 14.468 14.468 0 0 0 135.808 34.043 A 4.978 4.978 0 0 1 135.552 34.157 A 2.448 2.448 0 0 1 134.65 34.351 A 1.732 1.732 0 0 1 134.6 34.35 Q 133.639 34.322 133.448 33.218 A 3.63 3.63 0 0 1 133.4 32.601 A 2.814 2.814 0 0 1 133.418 32.326 Q 133.468 31.835 133.664 30.798 A 67.886 67.886 0 0 1 133.8 30.101 Q 134.166 28.07 134.234 27.26 A 3.791 3.791 0 0 0 134.25 26.951 A 4.788 4.788 0 0 0 134.112 25.747 Q 133.579 23.701 131 23.701 A 5.169 5.169 0 0 0 130.133 23.776 Q 129.44 23.894 128.695 24.196 A 10.368 10.368 0 0 0 127.375 24.851 A 9.49 9.49 0 0 0 126.214 25.655 Q 125.488 26.239 124.751 27.028 A 21.479 21.479 0 0 0 123.35 28.701 A 19.642 19.642 0 0 0 122.526 29.876 Q 120.962 32.283 119.65 35.701 Q 119.775 34.326 119.939 33.224 A 25.166 25.166 0 0 1 120.15 32.001 Q 120.45 30.501 120.95 28.501 Q 121.7 25.701 121.7 24.901 A 2.049 2.049 0 0 0 121.687 24.658 Q 121.626 24.155 121.3 23.951 A 1.099 1.099 0 0 0 121.098 23.854 Q 120.686 23.702 119.914 23.701 A 8.007 8.007 0 0 0 119.9 23.701 Q 118.802 23.701 117.994 23.939 A 3.601 3.601 0 0 0 117.025 24.376 A 3.327 3.327 0 0 0 115.969 25.522 A 4.842 4.842 0 0 0 115.55 26.501 A 38.471 38.471 0 0 0 115.272 27.419 A 40.972 40.972 0 0 0 113.706 37.95 A 62.463 62.463 0 0 1 113.026 38.714 Q 112.521 39.27 112.085 39.716 A 19.674 19.674 0 0 1 111.25 40.526 A 9.048 9.048 0 0 1 110.855 40.865 Q 110.181 41.409 109.617 41.619 A 1.918 1.918 0 0 1 108.95 41.751 A 1.52 1.52 0 0 1 108.84 41.747 A 1.197 1.197 0 0 1 107.975 41.301 Q 107.6 40.851 107.6 40.101 A 9.535 9.535 0 0 1 107.602 39.941 Q 107.64 37.652 108.75 32.101 A 153.483 153.483 0 0 0 108.844 31.605 Q 109.5 28.083 109.5 27.101 A 2.425 2.425 0 0 0 109.499 27.03 Q 109.46 25.686 107.914 25.418 A 5.081 5.081 0 0 0 107.05 25.351 A 12.987 12.987 0 0 0 106.729 25.355 A 11.556 11.556 0 0 0 104.85 25.551 Q 104.674 24.777 104.437 24.338 A 1.67 1.67 0 0 0 104.225 24.026 A 0.884 0.884 0 0 0 104.035 23.865 Q 103.618 23.601 102.75 23.601 A 10.541 10.541 0 0 0 99.649 24.063 A 12.007 12.007 0 0 0 96.225 25.776 A 15.134 15.134 0 0 0 94.592 27.11 A 16.256 16.256 0 0 0 91.3 31.526 Q 89.45 35.101 89.45 39.101 Q 89.45 42.751 91.3 45.001 A 5.93 5.93 0 0 0 93.897 46.865 Z M 656.95 4.951 A 0.95 0.95 0 0 0 656.337 5.227 Q 655.426 6.021 654.35 9.101 A 48.643 48.643 0 0 0 653.312 12.495 Q 652.798 14.403 652.338 16.614 A 100.395 100.395 0 0 0 651.8 19.401 Q 650.7 25.551 650.6 31.201 A 66.863 66.863 0 0 0 655.032 22.595 A 58.45 58.45 0 0 0 656.25 19.476 Q 658.126 14.229 658.326 9.8 A 23.191 23.191 0 0 0 658.35 8.751 A 15.754 15.754 0 0 0 658.309 7.557 Q 658.11 4.951 656.95 4.951 Z M 556.85 4.901 A 0.751 0.751 0 0 0 556.338 5.146 Q 555.81 5.652 555.281 7.203 A 20.873 20.873 0 0 0 554.95 8.276 A 38.973 38.973 0 0 0 554.33 10.841 Q 554.049 12.183 553.798 13.748 A 94.685 94.685 0 0 0 553.325 17.101 A 152.508 152.508 0 0 0 552.524 25.557 A 172.294 172.294 0 0 0 552.35 28.501 A 93.927 93.927 0 0 0 555.057 22.018 Q 557.467 15.522 557.87 10.746 A 21.995 21.995 0 0 0 557.95 8.901 Q 557.95 7.14 557.671 6.109 A 4.618 4.618 0 0 0 557.625 5.951 A 4.347 4.347 0 0 0 557.499 5.594 Q 557.252 4.99 556.942 4.912 A 0.379 0.379 0 0 0 556.85 4.901 Z M 248.8 4.951 A 0.817 0.817 0 0 0 248.308 5.154 Q 247.559 5.737 246.575 8.001 Q 245.25 11.051 243.95 16.076 Q 242.65 21.101 241.7 26.701 A 39.214 39.214 0 0 0 245.933 20.942 A 32.877 32.877 0 0 0 247.85 17.226 A 29.122 29.122 0 0 0 249.33 13.036 Q 250.022 10.42 250.05 8.001 A 11.373 11.373 0 0 0 250.013 7.043 Q 249.835 4.951 248.8 4.951 Z M 617.4 4.951 A 0.817 0.817 0 0 0 616.908 5.154 Q 616.159 5.737 615.175 8.001 Q 613.85 11.051 612.55 16.076 Q 611.25 21.101 610.3 26.701 A 39.214 39.214 0 0 0 614.533 20.942 A 32.877 32.877 0 0 0 616.45 17.226 A 29.122 29.122 0 0 0 617.93 13.036 Q 618.622 10.42 618.65 8.001 A 11.373 11.373 0 0 0 618.613 7.043 Q 618.435 4.951 617.4 4.951 Z M 725.75 64.951 A 0.882 0.882 0 0 0 726.416 64.56 Q 727.332 63.436 728 59.076 A 84.087 84.087 0 0 0 728.584 54.265 Q 728.994 49.92 729.15 44.451 A 80.429 80.429 0 0 0 726.914 50.23 A 64.894 64.894 0 0 0 725.75 54.001 A 44.641 44.641 0 0 0 725.039 56.958 Q 724.753 58.37 724.619 59.606 A 19.025 19.025 0 0 0 724.5 61.651 A 11.01 11.01 0 0 0 724.533 62.535 Q 724.612 63.503 724.875 64.101 Q 725.15 64.725 725.493 64.891 A 0.583 0.583 0 0 0 725.75 64.951 Z M 101.6 37.451 L 103.45 28.251 A 5.854 5.854 0 0 0 100.195 29.345 A 7.633 7.633 0 0 0 99.575 29.826 Q 97.8 31.351 96.75 33.851 Q 95.7 36.351 95.7 39.151 A 6.165 6.165 0 0 0 95.75 39.96 Q 95.875 40.903 96.317 41.441 A 1.928 1.928 0 0 0 96.325 41.451 A 2.043 2.043 0 0 0 97.718 42.183 A 2.926 2.926 0 0 0 98.05 42.201 A 2.012 2.012 0 0 0 99.109 41.886 Q 99.642 41.561 100.15 40.901 A 6.679 6.679 0 0 0 100.966 39.497 Q 101.262 38.82 101.471 38.008 A 12.689 12.689 0 0 0 101.6 37.451 Z M 221.9 37.451 L 223.75 28.251 A 5.854 5.854 0 0 0 220.495 29.345 A 7.633 7.633 0 0 0 219.875 29.826 Q 218.1 31.351 217.05 33.851 Q 216 36.351 216 39.151 A 6.165 6.165 0 0 0 216.05 39.96 Q 216.175 40.903 216.617 41.441 A 1.928 1.928 0 0 0 216.625 41.451 A 2.043 2.043 0 0 0 218.018 42.183 A 2.926 2.926 0 0 0 218.35 42.201 A 2.012 2.012 0 0 0 219.409 41.886 Q 219.942 41.561 220.45 40.901 A 6.679 6.679 0 0 0 221.266 39.497 Q 221.562 38.82 221.771 38.008 A 12.689 12.689 0 0 0 221.9 37.451 Z M 320.85 36.801 L 322.45 28.251 A 5.646 5.646 0 0 0 319.381 29.262 A 7.493 7.493 0 0 0 318.65 29.826 A 9.907 9.907 0 0 0 316.657 32.243 A 12.821 12.821 0 0 0 315.85 33.851 Q 314.8 36.351 314.8 39.151 A 6.165 6.165 0 0 0 314.85 39.96 Q 314.975 40.903 315.417 41.441 A 1.928 1.928 0 0 0 315.425 41.451 A 2.043 2.043 0 0 0 316.818 42.183 A 2.926 2.926 0 0 0 317.15 42.201 A 2.057 2.057 0 0 0 318.24 41.873 Q 318.808 41.523 319.35 40.801 A 6.359 6.359 0 0 0 320.079 39.524 Q 320.359 38.884 320.568 38.102 A 14.822 14.822 0 0 0 320.85 36.801 Z M 735.3 42.451 A 6.049 6.049 0 0 0 737.544 41.42 A 8.187 8.187 0 0 0 738.625 40.476 Q 740.15 38.901 741.05 36.576 Q 741.95 34.251 741.95 31.701 A 6 6 0 0 0 741.895 30.854 Q 741.833 30.423 741.703 30.075 A 2.442 2.442 0 0 0 741.35 29.426 A 1.899 1.899 0 0 0 739.972 28.661 A 2.418 2.418 0 0 0 739.75 28.651 A 2.342 2.342 0 0 0 738.615 28.986 Q 737.328 29.704 735.736 31.963 A 25.9 25.9 0 0 0 735.4 32.451 Q 735.35 34.651 735.35 38.901 Q 735.35 40.662 735.321 41.807 A 44.996 44.996 0 0 1 735.3 42.451 Z M 380.75 28.951 L 380.5 28.951 A 3.686 3.686 0 0 0 377.741 30.173 A 5.697 5.697 0 0 0 377.175 30.876 A 6.643 6.643 0 0 0 376.305 32.74 Q 375.85 34.25 375.85 36.301 A 11.28 11.28 0 0 0 375.953 37.874 Q 376.182 39.498 376.925 40.501 A 4.423 4.423 0 0 0 377.634 41.266 A 2.765 2.765 0 0 0 379.45 41.951 A 3.544 3.544 0 0 0 381.963 40.92 A 4.863 4.863 0 0 0 382.225 40.651 Q 383.4 39.351 383.8 36.901 Q 382.25 35.851 381.425 34.151 Q 380.6 32.451 380.6 30.551 Q 380.6 29.751 380.75 28.951 Z M 497.4 28.951 L 497.15 28.951 A 3.686 3.686 0 0 0 494.391 30.173 A 5.697 5.697 0 0 0 493.825 30.876 A 6.643 6.643 0 0 0 492.955 32.74 Q 492.5 34.25 492.5 36.301 A 11.28 11.28 0 0 0 492.603 37.874 Q 492.832 39.498 493.575 40.501 A 4.423 4.423 0 0 0 494.284 41.266 A 2.765 2.765 0 0 0 496.1 41.951 A 3.544 3.544 0 0 0 498.613 40.92 A 4.863 4.863 0 0 0 498.875 40.651 Q 500.05 39.351 500.45 36.901 Q 498.9 35.851 498.075 34.151 Q 497.25 32.451 497.25 30.551 Q 497.25 29.751 497.4 28.951 Z M 542.45 42.201 A 2.544 2.544 0 0 0 543.519 41.956 Q 543.87 41.795 544.22 41.528 A 4.806 4.806 0 0 0 544.35 41.426 A 6.296 6.296 0 0 0 544.922 40.887 Q 545.707 40.062 546.75 38.551 Q 546.25 35.851 546.25 32.501 Q 546.25 31.301 546.35 28.601 A 7.81 7.81 0 0 0 542.842 30.879 A 10.703 10.703 0 0 0 541.775 32.276 Q 539.95 35.101 539.95 38.551 Q 539.95 42.099 542.312 42.198 A 3.285 3.285 0 0 0 542.45 42.201 Z M 266 8.151 A 0.809 0.809 0 0 0 265.543 8.314 Q 265.041 8.66 264.47 9.742 A 11.748 11.748 0 0 0 264.325 10.026 A 15.686 15.686 0 0 0 263.757 11.339 Q 263.183 12.834 262.651 14.925 A 51.159 51.159 0 0 0 262.575 15.226 A 61.004 61.004 0 0 0 261.819 18.732 A 79.5 79.5 0 0 0 261.2 22.601 A 18.339 18.339 0 0 0 264.183 19.352 A 15.688 15.688 0 0 0 265.625 16.876 Q 266.81 14.325 267.043 12.145 A 9.826 9.826 0 0 0 267.1 11.101 A 12.085 12.085 0 0 0 267.068 10.174 Q 266.911 8.151 266 8.151 Z M 687.25 8.151 A 0.809 0.809 0 0 0 686.793 8.314 Q 686.291 8.66 685.72 9.742 A 11.748 11.748 0 0 0 685.575 10.026 A 15.686 15.686 0 0 0 685.007 11.339 Q 684.433 12.834 683.901 14.925 A 51.159 51.159 0 0 0 683.825 15.226 A 61.004 61.004 0 0 0 683.069 18.732 A 79.5 79.5 0 0 0 682.45 22.601 A 18.339 18.339 0 0 0 685.433 19.352 A 15.688 15.688 0 0 0 686.875 16.876 Q 688.06 14.325 688.293 12.145 A 9.826 9.826 0 0 0 688.35 11.101 A 12.085 12.085 0 0 0 688.318 10.174 Q 688.161 8.151 687.25 8.151 Z M 350.1 64.901 A 1.436 1.436 0 0 0 350.885 64.635 Q 351.819 64.023 352.9 62.001 Q 354.45 59.101 356 52.351 Q 353.494 54.466 351.889 56.338 A 17.916 17.916 0 0 0 350.425 58.276 Q 349.337 59.963 348.936 61.381 A 5.767 5.767 0 0 0 348.7 62.951 A 3.655 3.655 0 0 0 348.746 63.546 Q 348.799 63.87 348.916 64.136 A 1.978 1.978 0 0 0 349.025 64.351 A 1.075 1.075 0 0 0 349.812 64.878 A 1.729 1.729 0 0 0 350.1 64.901 Z M 313 64.901 A 1.403 1.403 0 0 0 313.771 64.637 Q 314.718 64.01 315.825 61.901 Q 317.135 59.406 318.358 54.457 A 88.634 88.634 0 0 0 318.85 52.351 Q 315.043 55.614 313.338 58.242 A 13.723 13.723 0 0 0 313.3 58.301 A 14.746 14.746 0 0 0 312.413 59.875 Q 311.6 61.568 311.6 62.951 A 3.655 3.655 0 0 0 311.646 63.546 Q 311.699 63.87 311.816 64.136 A 1.978 1.978 0 0 0 311.925 64.351 A 1.075 1.075 0 0 0 312.712 64.878 A 1.729 1.729 0 0 0 313 64.901 Z M 45.1 15.551 A 12.057 12.057 0 0 0 45.408 18.364 A 7.526 7.526 0 0 0 48.25 22.801 A 47.868 47.868 0 0 0 49.279 19.491 Q 50.17 16.174 50.199 13.719 A 13.918 13.918 0 0 0 50.2 13.551 Q 50.2 11.451 49.65 10.476 A 2.365 2.365 0 0 0 49.288 9.983 A 1.531 1.531 0 0 0 48.15 9.501 A 2.124 2.124 0 0 0 46.594 10.179 Q 46.308 10.468 46.062 10.879 A 5.068 5.068 0 0 0 45.95 11.076 A 5.957 5.957 0 0 0 45.449 12.379 Q 45.111 13.652 45.101 15.435 A 19.533 19.533 0 0 0 45.1 15.551 Z M 277.496 20.315 A 7.239 7.239 0 0 0 278.65 20.401 A 6.467 6.467 0 0 0 280.042 20.259 A 4.426 4.426 0 0 0 282.1 19.226 Q 283.4 18.051 283.4 16.051 Q 283.4 14.401 282.25 13.501 A 3.75 3.75 0 0 0 282.006 13.325 Q 281.366 12.902 280.533 12.726 A 6.204 6.204 0 0 0 279.25 12.601 A 6.496 6.496 0 0 0 278.442 12.65 A 4.862 4.862 0 0 0 275.825 13.776 A 4.713 4.713 0 0 0 275.619 13.963 A 3.657 3.657 0 0 0 274.45 16.701 A 4.785 4.785 0 0 0 274.553 17.719 A 3.191 3.191 0 0 0 275.5 19.426 A 3.149 3.149 0 0 0 276.384 19.998 Q 276.877 20.215 277.496 20.315 Z M 721.496 20.315 A 7.239 7.239 0 0 0 722.65 20.401 A 6.467 6.467 0 0 0 724.042 20.259 A 4.426 4.426 0 0 0 726.1 19.226 Q 727.4 18.051 727.4 16.051 Q 727.4 14.401 726.25 13.501 A 3.75 3.75 0 0 0 726.006 13.325 Q 725.366 12.902 724.533 12.726 A 6.204 6.204 0 0 0 723.25 12.601 A 6.496 6.496 0 0 0 722.442 12.65 A 4.862 4.862 0 0 0 719.825 13.776 A 4.713 4.713 0 0 0 719.619 13.963 A 3.657 3.657 0 0 0 718.45 16.701 A 4.785 4.785 0 0 0 718.553 17.719 A 3.191 3.191 0 0 0 719.5 19.426 A 3.149 3.149 0 0 0 720.384 19.998 Q 720.877 20.215 721.496 20.315 Z M 62.5 35.951 L 62.5 36.051 Q 64.809 35.503 66.352 34.527 A 7.894 7.894 0 0 0 67.15 33.951 A 5.42 5.42 0 0 0 68.118 32.935 A 3.75 3.75 0 0 0 68.85 30.701 A 2.789 2.789 0 0 0 68.777 30.043 A 1.939 1.939 0 0 0 68.325 29.176 A 1.731 1.731 0 0 0 67.276 28.628 A 2.472 2.472 0 0 0 66.9 28.601 Q 65.05 28.601 63.775 30.751 Q 62.5 32.901 62.5 35.951 Z M 141.65 35.951 L 141.65 36.051 Q 143.959 35.503 145.502 34.527 A 7.894 7.894 0 0 0 146.3 33.951 A 5.42 5.42 0 0 0 147.268 32.935 A 3.75 3.75 0 0 0 148 30.701 A 2.789 2.789 0 0 0 147.927 30.043 A 1.939 1.939 0 0 0 147.475 29.176 A 1.731 1.731 0 0 0 146.426 28.628 A 2.472 2.472 0 0 0 146.05 28.601 Q 144.2 28.601 142.925 30.751 Q 141.65 32.901 141.65 35.951 Z M 565.4 35.951 L 565.4 36.051 Q 567.709 35.503 569.252 34.527 A 7.894 7.894 0 0 0 570.05 33.951 A 5.42 5.42 0 0 0 571.018 32.935 A 3.75 3.75 0 0 0 571.75 30.701 A 2.789 2.789 0 0 0 571.677 30.043 A 1.939 1.939 0 0 0 571.225 29.176 A 1.731 1.731 0 0 0 570.176 28.628 A 2.472 2.472 0 0 0 569.8 28.601 Q 567.95 28.601 566.675 30.751 Q 565.4 32.901 565.4 35.951 Z"/></g></svg>