<svg width="403" height="65" viewBox="0 0 403 65" fill="none" xmlns="http://www.w3.org/2000/svg">
<path d="M17.52 18.776V47H8.112V18.776H0.384V10.808H25.248V18.776H17.52ZM38.8406 26.984H40.6166C42.4726 26.984 43.8966 26.6 44.8886 25.832C45.8806 25.064 46.3766 23.96 46.3766 22.52C46.3766 21.08 45.8806 19.976 44.8886 19.208C43.8966 18.44 42.4726 18.056 40.6166 18.056H38.8406V26.984ZM59.5286 47H47.8166L38.8406 33.08V47H29.4326V10.808H44.0726C46.0886 10.808 47.8486 11.112 49.3526 11.72C50.8566 12.296 52.0886 13.096 53.0486 14.12C54.0406 15.144 54.7766 16.328 55.2566 17.672C55.7686 19.016 56.0246 20.456 56.0246 21.992C56.0246 24.744 55.3526 26.984 54.0086 28.712C52.6966 30.408 50.7446 31.56 48.1526 32.168L59.5286 47ZM83.1439 33.56L78.9199 21.512L74.6959 33.56H83.1439ZM85.6399 40.712H72.1999L70.0399 47H60.0079L73.7839 10.808H84.0559L97.8319 47H87.7999L85.6399 40.712ZM105.615 10.808L114.351 32.84L123.135 10.808H133.359L118.095 47H110.607L95.3906 10.808H105.615ZM157.743 18.776H146.559V24.824H157.119V32.792H146.559V39.032H157.743V47H137.151V10.808H157.743V18.776ZM173.934 10.808V39.032H185.214V47H164.526V10.808H173.934ZM235.938 41.752C232.61 44.5253 228.855 45.912 224.674 45.912C220.364 45.912 216.716 44.9093 213.73 42.904C210.743 40.8987 208.503 38.168 207.01 34.712C205.559 31.2133 204.834 27.288 204.834 22.936C204.834 18.7973 205.623 15 207.202 11.544C208.78 8.088 211.148 5.336 214.306 3.288C217.506 1.19733 221.41 0.151997 226.018 0.151997C229.004 0.151997 231.65 0.578664 233.954 1.432C236.3 2.28533 238.135 3.48 239.458 5.016C240.78 6.50933 241.442 8.23733 241.442 10.2C241.442 12.376 240.78 14.168 239.458 15.576C238.178 16.984 236.556 17.688 234.594 17.688C233.954 17.688 233.57 17.6453 233.442 17.56C233.314 17.4747 233.25 17.2613 233.25 16.92C233.25 16.792 233.42 16.4293 233.762 15.832C234.146 15.2347 234.466 14.5733 234.722 13.848C235.02 13.08 235.17 12.1627 235.17 11.096C235.17 8.92 234.316 7.14933 232.61 5.784C230.946 4.41866 228.748 3.736 226.018 3.736C222.647 3.736 219.895 4.696 217.762 6.616C215.628 8.536 214.092 10.9253 213.154 13.784C212.215 16.6427 211.746 19.5867 211.746 22.616C211.746 26.1573 212.279 29.4 213.346 32.344C214.455 35.2453 216.034 37.5493 218.082 39.256C220.13 40.9627 222.519 41.816 225.25 41.816C229.474 41.816 233.036 40.3653 235.938 37.464V34.2C235.938 32.2373 235.66 30.872 235.106 30.104C234.551 29.336 233.463 28.7173 231.842 28.248L230.37 27.864L231.138 25.688H244.578L245.41 26.712L244.578 27.864C243.511 29.272 242.764 30.7653 242.338 32.344C241.911 33.9227 241.698 35.992 241.698 38.552V45.976C241.698 58.52 236.62 64.792 226.466 64.792C223.948 64.792 221.815 64.344 220.066 63.448C218.316 62.5947 216.994 61.464 216.098 60.056C215.244 58.6907 214.818 57.2187 214.818 55.64C214.818 53.5067 215.543 51.672 216.994 50.136C218.444 48.6427 220.428 47.896 222.946 47.896C223.372 47.896 223.671 47.96 223.842 48.088C224.055 48.2587 224.162 48.4293 224.162 48.6C224.162 48.7707 223.863 49.176 223.266 49.816C222.668 50.456 222.135 51.224 221.666 52.12C221.239 53.016 221.026 54.1467 221.026 55.512C221.026 57.2187 221.602 58.6267 222.754 59.736C223.948 60.888 225.548 61.464 227.554 61.464C230.327 61.464 232.418 60.3973 233.826 58.264C235.234 56.1307 235.938 52.632 235.938 47.768V41.752ZM271.228 18.776H260.044V24.824H270.604V32.792H260.044V39.032H271.228V47H250.636V10.808H271.228V18.776ZM278.011 47V10.808H287.419L304.795 32.936V10.808H314.155V47H304.795L287.419 24.872V47H278.011ZM331.153 10.808V47H321.745V10.808H331.153ZM348.122 10.808V30.488C348.122 31.544 348.154 32.632 348.218 33.752C348.314 34.84 348.554 35.832 348.938 36.728C349.354 37.624 349.994 38.36 350.858 38.936C351.722 39.48 352.938 39.752 354.506 39.752C356.074 39.752 357.274 39.48 358.106 38.936C358.97 38.36 359.61 37.624 360.026 36.728C360.442 35.832 360.682 34.84 360.746 33.752C360.842 32.632 360.89 31.544 360.89 30.488V10.808H370.25V31.784C370.25 37.416 368.954 41.528 366.362 44.12C363.802 46.712 359.85 48.008 354.506 48.008C349.162 48.008 345.194 46.712 342.602 44.12C340.01 41.528 338.714 37.416 338.714 31.784V10.808H348.122ZM397.727 20.072C396.703 19.24 395.679 18.632 394.655 18.248C393.631 17.832 392.639 17.624 391.679 17.624C390.463 17.624 389.471 17.912 388.703 18.488C387.935 19.064 387.551 19.816 387.551 20.744C387.551 21.384 387.743 21.912 388.127 22.328C388.511 22.744 389.007 23.112 389.615 23.432C390.255 23.72 390.959 23.976 391.727 24.2C392.527 24.424 393.311 24.664 394.079 24.92C397.151 25.944 399.391 27.32 400.799 29.048C402.239 30.744 402.959 32.968 402.959 35.72C402.959 37.576 402.639 39.256 401.999 40.76C401.391 42.264 400.479 43.56 399.263 44.648C398.079 45.704 396.607 46.52 394.847 47.096C393.119 47.704 391.151 48.008 388.943 48.008C384.367 48.008 380.127 46.648 376.223 43.928L380.255 36.344C381.663 37.592 383.055 38.52 384.431 39.128C385.807 39.736 387.167 40.04 388.511 40.04C390.047 40.04 391.183 39.688 391.919 38.984C392.687 38.28 393.071 37.48 393.071 36.584C393.071 36.04 392.975 35.576 392.783 35.192C392.591 34.776 392.271 34.408 391.823 34.088C391.375 33.736 390.783 33.416 390.047 33.128C389.343 32.84 388.479 32.52 387.455 32.168C386.239 31.784 385.039 31.368 383.855 30.92C382.703 30.44 381.663 29.816 380.735 29.048C379.839 28.28 379.103 27.32 378.527 26.168C377.983 24.984 377.711 23.496 377.711 21.704C377.711 19.912 377.999 18.296 378.575 16.856C379.183 15.384 380.015 14.136 381.071 13.112C382.159 12.056 383.471 11.24 385.007 10.664C386.575 10.088 388.319 9.8 390.239 9.8C392.031 9.8 393.903 10.056 395.855 10.568C397.807 11.048 399.679 11.768 401.471 12.728L397.727 20.072Z" fill="white"/>
</svg>
